<?xml version="1.0" standalone="no"?>
<!DOCTYPE svg PUBLIC "-//W3C//DTD SVG 20010904//EN"
 "http://www.w3.org/TR/2001/REC-SVG-20010904/DTD/svg10.dtd">
<svg version="1.0" xmlns="http://www.w3.org/2000/svg"
 width="1920.000000pt" height="1080.000000pt" viewBox="0 0 1920.000000 1080.000000"
 preserveAspectRatio="xMidYMid meet">

<g transform="translate(0.000000,1080.000000) scale(0.100000,-0.100000)"
fill="#000000" stroke="none">
<path d="M17360 10786 c0 -15 24 -28 34 -19 13 14 5 33 -14 33 -11 0 -20 -6
-20 -14z"/>
<path d="M18560 10760 l0 -40 40 0 c36 0 40 -2 40 -25 0 -22 4 -25 40 -25 25
0 40 -5 40 -13 0 -8 23 -12 80 -12 l80 -1 0 78 0 78 -160 0 -160 0 0 -40z"/>
<path d="M18960 10760 l0 -40 40 0 c29 0 40 4 40 15 0 11 11 15 40 15 29 0 40
-4 40 -15 0 -11 -11 -15 -40 -15 l-40 0 0 -40 0 -40 80 0 80 0 0 80 0 80 -120
0 -120 0 0 -40z"/>
<path d="M11642 9655 c-197 -44 -364 -159 -440 -303 -26 -49 -32 -71 -32 -124
0 -36 4 -78 10 -94 5 -16 14 -112 19 -214 8 -155 14 -198 36 -268 15 -48 30
-80 36 -76 6 3 9 0 8 -7 -1 -8 2 -25 8 -39 6 -14 17 -41 25 -60 l13 -35 7 60
c4 33 10 85 12 116 6 60 31 145 49 168 6 7 14 44 18 81 7 82 23 102 82 105 41
2 96 19 107 33 15 20 120 60 160 60 28 1 49 6 56 16 17 24 71 32 92 13 9 -8
36 -21 60 -28 29 -8 39 -16 32 -23 -14 -14 -13 -46 3 -46 6 0 25 -7 41 -15 15
-8 33 -12 39 -8 5 3 7 2 4 -4 -17 -27 213 -64 231 -37 4 6 24 14 45 17 30 5
37 3 37 -11 0 -13 4 -11 16 7 12 17 22 21 40 17 17 -5 24 -2 24 9 0 8 4 15 9
15 13 0 31 -57 31 -100 0 -23 8 -46 20 -60 11 -13 20 -26 21 -29 0 -3 2 -13 4
-21 26 -130 48 -253 51 -280 0 -8 2 -20 3 -26 0 -7 12 -15 25 -18 19 -5 25
-14 30 -56 4 -32 2 -64 -5 -85 -15 -40 -6 -54 21 -37 11 7 31 12 44 12 17 0
31 10 44 33 42 68 34 119 -24 147 l-31 15 28 29 28 30 11 -30 c6 -16 17 -51
24 -78 l13 -48 23 61 c17 47 21 72 16 108 -9 66 -18 72 -70 44 -32 -16 -49
-20 -61 -14 -15 9 -14 13 10 41 23 27 28 46 36 134 6 57 7 123 4 148 -18 121
-57 294 -85 370 -48 133 -62 163 -72 148 -5 -8 -8 1 -8 23 0 39 -21 65 -44 56
-20 -8 -28 4 -14 22 8 10 5 10 -9 -3 -21 -18 -23 -18 -53 4 -17 12 -30 18 -29
13 4 -22 -3 -24 -27 -8 -20 13 -28 14 -34 5 -6 -9 -9 -9 -13 1 -4 10 -6 10 -6
2 -1 -7 -14 -13 -29 -13 -15 0 -33 -5 -40 -12 -14 -14 -16 -68 -2 -68 6 0 10
-3 10 -7 0 -5 -10 -8 -23 -8 -20 0 -22 4 -18 35 2 19 8 38 15 42 6 4 7 11 2
15 -5 4 -11 2 -13 -4 -3 -7 -13 -13 -24 -13 -16 0 -18 -3 -9 -19 13 -26 13
-52 -1 -28 -6 9 -14 15 -18 13 -4 -3 -26 12 -48 32 -23 20 -56 45 -75 56 -18
10 -52 29 -75 43 -108 60 -281 86 -401 58z m373 -635 c3 -5 1 -10 -4 -10 -6 0
-11 5 -11 10 0 6 2 10 4 10 3 0 8 -4 11 -10z m-735 -380 c0 -5 -5 -10 -11 -10
-5 0 -7 5 -4 10 3 6 8 10 11 10 2 0 4 -4 4 -10z m27 -72 c-3 -8 -6 -5 -6 6 -1
11 2 17 5 13 3 -3 4 -12 1 -19z m1388 -88 c-3 -5 -12 -10 -18 -10 -7 0 -6 4 3
10 19 12 23 12 15 0z"/>
<path d="M12100 9580 c0 -5 5 -10 10 -10 6 0 10 5 10 10 0 6 -4 10 -10 10 -5
0 -10 -4 -10 -10z"/>
<path d="M12494 9546 c11 -9 24 -16 30 -16 12 0 7 5 -24 19 -24 11 -24 11 -6
-3z"/>
<path d="M6735 9424 c-16 -24 -16 -27 1 -45 9 -10 27 -19 39 -19 12 0 30 9 39
19 17 18 17 21 1 45 -10 15 -27 26 -40 26 -13 0 -30 -11 -40 -26z"/>
<path d="M5848 9193 c7 -3 16 -2 19 1 4 3 -2 6 -13 5 -11 0 -14 -3 -6 -6z"/>
<path d="M7255 9189 c-462 -20 -995 -72 -1385 -135 -85 -14 -192 -28 -237 -31
-79 -5 -82 -5 -107 22 -14 15 -26 37 -26 48 0 24 27 46 57 47 12 0 25 5 29 11
4 8 -5 9 -32 6 -108 -16 -146 -18 -200 -7 -148 28 -241 36 -296 23 -37 -8
-127 -11 -293 -8 -200 3 -259 0 -355 -15 -179 -30 -232 -50 -490 -185 -25 -13
-67 -34 -95 -46 -122 -53 -174 -105 -239 -239 -44 -92 -51 -113 -50 -165 0
-39 6 -69 17 -86 24 -37 8 -47 -89 -59 -264 -31 -644 -78 -684 -85 -14 -3 -61
-9 -105 -15 -44 -6 -109 -15 -145 -20 -36 -6 -162 -24 -280 -41 -118 -16 -222
-32 -230 -34 -8 -3 -64 -11 -124 -20 -61 -8 -157 -26 -215 -40 -96 -22 -184
-39 -416 -80 -393 -70 -524 -104 -665 -173 -82 -39 -108 -59 -190 -141 -124
-124 -324 -391 -389 -518 l-21 -42 0 -3581 0 -3580 1385 0 c888 0 1385 3 1385
10 0 5 -13 19 -30 32 -33 24 -38 38 -15 38 11 0 15 12 15 50 0 35 -4 50 -13
50 -7 0 -26 14 -42 30 l-29 30 39 0 c30 0 46 7 72 32 l33 32 0 -32 c0 -29 3
-32 29 -32 16 0 31 -6 34 -13 5 -13 97 -12 97 2 0 8 -50 31 -67 31 -7 0 -13 9
-13 20 0 13 7 20 19 20 11 0 23 4 26 10 4 6 -21 10 -69 10 -70 0 -76 2 -105
31 -31 31 -39 49 -21 49 6 0 10 19 10 43 0 35 6 49 30 72 l30 29 0 -32 c0 -31
2 -32 40 -32 22 0 40 4 40 9 0 5 12 11 28 13 16 2 27 9 27 18 0 9 -11 16 -27
18 -29 3 -37 17 -15 25 7 2 8 8 3 13 -5 5 -11 4 -13 -3 -5 -15 -163 -19 -163
-5 0 5 -18 15 -40 22 -27 9 -40 19 -40 32 0 10 -7 18 -15 18 -11 0 -15 11 -15
40 0 28 4 40 14 40 8 0 17 -6 20 -12 5 -10 7 -10 12 0 4 8 29 12 75 12 l69 0
0 38 c0 33 4 39 40 56 38 18 47 19 133 7 50 -8 113 -13 140 -12 26 0 62 1 80
1 48 1 367 -1 407 -2 19 -1 70 -2 112 -2 45 -1 70 -4 60 -9 -9 -4 7 -5 38 -3
48 3 56 1 73 -20 21 -27 37 -31 37 -9 0 18 76 22 82 4 4 -13 78 9 78 23 0 4
18 8 39 8 22 0 42 6 45 13 3 8 12 3 26 -15 24 -31 42 -35 60 -13 14 17 150 22
150 5 0 -5 18 -10 40 -10 33 0 40 3 40 20 0 17 7 20 40 20 25 0 40 -5 40 -12
1 -8 6 -6 14 5 16 21 42 22 50 2 4 -11 20 -15 54 -15 40 0 53 -4 66 -23 l16
-22 15 21 c13 18 21 20 68 13 75 -11 117 -10 117 1 0 6 -7 10 -16 10 -14 0
-14 3 -3 16 10 12 32 15 108 13 74 -2 104 2 128 14 40 21 103 23 103 3 0 -10
22 -16 80 -21 69 -6 80 -10 80 -26 0 -17 8 -19 80 -19 44 0 80 4 80 9 0 6 17
12 38 14 20 2 2 2 -40 -1 -67 -3 -78 -2 -78 12 0 12 10 16 39 16 22 0 41 4 43
9 2 5 38 12 81 16 67 6 77 5 77 -9 0 -12 10 -16 40 -16 22 0 40 5 40 11 0 19
28 39 54 39 16 0 26 6 26 15 0 13 25 15 169 15 169 0 170 0 189 25 17 22 28
25 82 25 42 0 66 5 77 16 13 13 35 14 147 8 72 -4 133 -11 134 -15 10 -27 82
7 82 38 0 6 50 10 127 10 86 0 128 4 131 12 2 6 17 11 33 11 19 0 29 5 29 15
0 11 11 15 40 15 29 0 40 4 40 15 0 11 11 15 40 15 29 0 40 -4 40 -15 0 -11
11 -15 40 -15 29 0 40 -4 40 -15 0 -23 13 -18 45 15 27 29 33 30 112 30 67 0
83 -3 83 -15 0 -11 11 -15 40 -15 29 0 40 -4 40 -15 0 -11 12 -15 48 -15 41 0
53 5 77 30 16 16 35 30 42 30 7 0 13 5 13 10 0 6 14 10 30 10 17 0 30 4 30 9
0 12 112 22 180 14 50 -5 60 -9 60 -24 0 -11 5 -19 10 -19 6 0 10 3 10 8 0 4
10 12 22 17 13 6 28 20 34 32 l11 23 28 -30 c32 -34 45 -38 45 -14 0 14 10 15
78 9 42 -4 79 -11 80 -16 11 -28 82 7 82 39 0 7 17 12 43 12 36 0 49 -6 85
-41 32 -31 46 -39 55 -30 8 8 7 11 -6 11 -31 0 -18 16 33 40 28 13 50 26 50
30 0 23 152 41 165 20 4 -7 28 -8 66 -4 35 4 64 2 71 -3 7 -6 30 -13 51 -17
43 -8 72 3 41 16 -10 4 20 5 68 2 47 -4 92 -2 100 2 7 5 63 9 123 10 61 1 119
2 130 4 11 1 47 0 80 -3 33 -2 150 -7 260 -11 110 -4 213 -12 229 -17 17 -5
44 -5 70 2 27 6 128 7 294 2 143 -5 252 -4 252 1 0 5 7 3 15 -4 12 -10 15 -10
15 1 0 9 5 7 12 -5 7 -12 12 -117 15 -285 2 -146 5 -284 7 -306 2 -22 -3 -49
-10 -60 -7 -11 -17 -39 -23 -62 -10 -38 -9 -47 19 -104 18 -37 30 -78 29 -98
0 -20 4 -83 10 -141 5 -58 10 -111 11 -117 0 -10 174 -13 835 -13 l835 0 0 24
c0 53 12 60 34 19 l22 -38 907 -3 907 -2 -5 82 c-8 105 -27 308 -40 418 -1 14
-8 68 -14 120 -6 53 -17 118 -26 145 -8 28 -15 66 -15 85 0 19 -5 51 -10 70
-10 31 -24 145 -35 281 -2 26 -13 66 -26 90 -13 26 -24 70 -27 109 -2 36 -9
70 -14 77 -5 6 -11 58 -12 115 -2 57 -8 120 -14 141 -10 36 -9 39 16 49 87 34
93 39 114 86 12 26 31 63 43 82 12 19 37 64 56 100 18 36 38 68 43 71 27 20 2
66 -133 250 l-141 194 -1 75 c-1 41 -1 80 0 85 1 14 -45 235 -54 257 -5 13 0
19 18 23 13 4 38 26 55 50 16 24 36 42 44 42 18 -2 231 12 363 24 111 10 135
20 195 77 10 10 15 11 18 3 2 -6 8 -11 14 -11 5 0 6 9 3 20 -4 13 -2 20 7 20
7 0 31 14 52 30 21 16 43 27 47 24 5 -3 9 0 9 5 0 6 5 11 11 11 5 0 7 -4 4
-10 -3 -5 -1 -10 4 -10 6 0 11 5 11 10 0 6 5 10 11 10 5 0 8 -4 5 -9 -3 -4 16
-3 41 3 41 9 44 11 23 17 -23 6 -22 7 8 8 18 1 31 -3 28 -8 -3 -5 12 -11 35
-13 22 -2 43 0 45 4 3 4 16 8 29 8 13 0 25 4 27 8 2 5 23 12 48 15 30 4 38 3
25 -3 -11 -5 -30 -9 -42 -9 -25 -1 -31 -17 -10 -24 6 -2 4 -3 -5 -2 -9 2 -19
-3 -22 -11 -3 -8 -13 -14 -21 -14 -24 0 -47 -27 -41 -48 4 -13 -1 -23 -19 -32
-44 -23 -29 -32 43 -25 128 13 294 9 368 -9 40 -10 127 -45 200 -82 l129 -66
195 -3 c107 -2 218 -8 246 -14 56 -11 116 -1 143 23 9 8 25 39 35 68 10 29 22
62 26 73 5 11 23 60 40 110 17 49 34 92 38 95 5 3 15 23 24 45 13 35 14 46 2
85 -8 25 -14 55 -14 66 0 12 -6 27 -14 33 -12 10 -18 2 -36 -46 -12 -32 -27
-90 -34 -129 -9 -59 -13 -69 -24 -58 -10 11 -10 14 0 14 25 0 -16 20 -41 20
-14 0 -44 10 -68 21 -42 20 -43 22 -24 35 28 20 16 48 -16 39 -13 -3 -58 -8
-101 -11 -42 -3 -80 -8 -83 -9 -3 -2 -59 -7 -125 -11 -65 -3 -122 -8 -125 -10
-3 -2 -48 -6 -100 -9 -90 -5 -298 -20 -424 -30 -33 -2 -109 -7 -170 -10 -60
-4 -153 -11 -205 -16 -52 -6 -126 -12 -165 -15 -328 -23 -487 -35 -524 -41
l-44 -6 36 -18 c65 -34 59 -52 -19 -64 -25 -3 -52 -2 -63 4 -31 17 -270 78
-331 85 -73 9 -112 -3 -117 -34 -2 -13 -5 -25 -6 -26 -6 -7 -125 -6 -146 1
-18 5 -21 9 -10 16 11 7 10 9 -4 9 -10 0 -28 -6 -40 -14 -17 -11 -33 -13 -70
-6 -26 5 -85 10 -130 12 -45 1 -86 5 -92 8 -5 4 -41 4 -80 0 -38 -3 -86 -2
-105 3 -19 4 -53 13 -75 18 -22 6 -82 16 -133 24 -86 12 -126 23 -91 26 8 1
-4 7 -26 14 -28 8 -39 17 -37 29 2 12 -5 16 -35 16 -28 0 -34 3 -23 10 11 7 6
9 -20 9 -19 -1 -27 -3 -17 -6 36 -9 15 -20 -28 -13 -25 4 -48 3 -51 -1 -6 -10
-95 0 -108 12 -6 5 -24 9 -40 9 -21 0 -27 -3 -18 -9 22 -13 -95 -23 -120 -10
-17 9 -18 13 -7 21 11 8 10 8 -4 4 -10 -3 -29 -6 -42 -6 -13 0 -30 -7 -39 -15
-8 -8 -24 -15 -34 -15 -11 0 -28 -3 -38 -7 -16 -6 -16 -7 2 -14 10 -4 -6 -5
-36 -2 -30 3 -58 11 -62 17 -5 7 -8 4 -8 -6 0 -20 -3 -22 -28 -9 -9 5 -37 15
-61 22 -40 12 -45 11 -58 -7 -11 -13 -17 -15 -20 -6 -3 6 -18 12 -35 12 -43 0
-30 24 18 31 28 5 19 6 -36 6 -90 0 -98 2 -134 31 -25 19 -30 20 -43 6 -17
-17 -35 -14 -42 7 -3 12 -2 12 11 1 10 -8 19 -9 22 -3 8 12 -2 18 -61 36 -27
8 -63 12 -80 9 -21 -4 -33 -2 -33 5 0 6 -9 11 -20 11 -11 0 -20 -3 -20 -7 0
-5 -20 -8 -45 -8 -25 0 -45 4 -45 8 0 5 -5 5 -12 1 -19 -12 -57 -14 -63 -3 -4
5 -15 9 -26 9 -10 0 -19 5 -19 11 0 7 -11 9 -30 6 -23 -5 -30 -3 -30 9 0 13
-8 15 -35 12 -22 -2 -36 1 -39 9 -3 7 -12 13 -20 13 -9 0 -20 10 -27 21 -8 15
-13 18 -19 10 -5 -9 -17 -4 -40 17 -23 22 -45 31 -76 34 -40 3 -56 -4 -36 -15
4 -2 0 -1 -8 2 -8 3 -41 6 -73 6 -46 0 -62 4 -73 19 -8 11 -14 15 -14 9 0 -5
-14 -10 -31 -11 -22 0 -32 5 -39 21 -5 12 -9 16 -9 9 -1 -7 -5 -10 -11 -7 -14
9 -13 48 2 63 9 9 8 12 -4 12 -8 0 -22 -10 -30 -21 -13 -20 -15 -20 -30 -6 -8
9 -18 13 -22 10 -12 -12 -6 -23 14 -23 11 0 20 -4 20 -10 0 -17 -17 -11 -49
15 -27 23 -31 24 -39 9 -5 -9 -15 -15 -22 -12 -10 3 -7 11 9 27 17 17 20 26
12 34 -8 8 -11 7 -11 -5 0 -14 -5 -15 -32 -7 -43 12 -51 22 -33 45 14 18 16
18 26 2 17 -29 39 -22 39 13 0 18 -4 28 -10 24 -6 -4 -20 5 -31 20 -14 17 -27
24 -39 20 -34 -11 -79 88 -46 101 18 7 21 31 5 36 -9 3 -9 9 0 25 6 12 11 30
11 41 0 11 7 25 15 32 8 7 15 16 15 21 0 5 -7 9 -15 9 -18 0 -20 26 -2 33 7 3
5 6 -5 6 -10 1 -18 -4 -18 -11 0 -9 -3 -9 -12 0 -7 7 -22 12 -35 12 -26 0 -31
15 -8 24 8 3 15 10 15 17 0 7 -7 8 -17 4 -58 -23 -75 -24 -80 -5 -3 11 -9 20
-14 20 -5 0 -9 5 -9 10 0 6 7 10 16 10 14 0 14 3 4 15 -8 9 -20 13 -29 9 -28
-11 -46 -12 -64 -2 -20 10 -12 32 9 24 7 -3 16 -1 19 3 3 5 -2 11 -10 15 -8 3
-15 14 -15 25 0 13 -9 23 -24 27 -19 4 -26 15 -31 45 -5 31 -9 36 -19 26 -11
-9 -10 -14 3 -24 9 -6 13 -15 8 -19 -4 -4 -7 -2 -7 4 0 7 -5 12 -10 12 -14 0
-1 -50 19 -74 9 -11 10 -16 4 -12 -16 9 -16 1 -3 -25 6 -10 12 -47 14 -82 4
-63 19 -160 36 -232 5 -22 14 -80 21 -129 6 -48 15 -83 19 -76 4 6 7 -10 6
-37 0 -49 26 -149 87 -333 19 -58 41 -127 48 -153 14 -54 81 -138 126 -155 16
-6 71 -20 123 -30 52 -11 127 -33 165 -49 39 -16 82 -33 97 -37 34 -8 55 -46
73 -134 19 -88 56 -232 66 -257 12 -28 39 -109 39 -116 0 -3 -9 -16 -20 -29
-12 -13 -18 -30 -16 -37 3 -7 1 -13 -4 -13 -6 0 -10 -14 -10 -31 0 -25 -3 -29
-19 -24 -12 3 -21 0 -24 -9 -4 -10 -1 -13 9 -9 11 4 14 -4 13 -38 -2 -30 -3
-35 -6 -16 -2 15 -8 25 -13 22 -10 -6 -8 -36 12 -180 13 -103 11 -202 -7 -279
-8 -33 -15 -74 -15 -91 1 -29 1 -29 17 -10 l16 20 -8 -20 c-4 -11 -10 -32 -13
-48 -2 -15 -8 -27 -13 -27 -5 0 -9 -7 -9 -16 0 -14 3 -14 15 -4 12 10 15 9 15
-7 0 -11 -3 -23 -7 -27 -5 -4 -14 -26 -20 -49 -11 -38 -12 -39 -9 -9 1 18 -1
35 -6 38 -4 3 -8 0 -8 -7 0 -6 -25 -42 -55 -79 -30 -37 -55 -73 -55 -79 0 -27
46 -4 78 39 19 25 40 45 46 45 17 0 19 -98 5 -197 -10 -69 -16 -88 -31 -91
-10 -3 -18 -2 -18 3 0 4 -39 11 -87 14 -200 16 -412 38 -633 65 -85 11 -402
43 -600 61 -58 5 -134 11 -170 12 -36 1 -75 9 -87 16 -21 13 -23 22 -23 96 0
44 -4 108 -10 141 -5 33 -11 112 -14 175 -8 149 -25 338 -36 392 -7 37 -9 40
-15 21 -9 -28 -25 -30 -25 -3 0 21 -15 27 -25 10 -29 -47 -50 52 -65 315 -18
300 -30 451 -40 495 -15 69 -15 210 -1 250 10 28 11 48 3 86 -8 34 -8 63 -1
94 6 25 8 77 5 115 -3 39 -7 134 -8 212 -2 127 0 144 17 163 19 21 18 21 -8
76 -24 47 -29 75 -38 204 -10 153 -4 231 23 288 12 25 21 28 103 39 50 6 92
12 94 12 3 1 0 6 -6 12 -6 6 -47 14 -92 18 -63 5 -84 11 -95 26 -27 35 -47 84
-46 112 3 150 1 235 -9 395 -12 202 -21 243 -49 235 -9 -2 -51 -15 -93 -27
-68 -21 -81 -22 -109 -10 -17 7 -35 22 -39 32 -9 24 39 123 83 174 27 31 38
36 89 41 78 8 88 26 42 81 -24 27 -35 50 -35 72 0 42 -27 211 -55 350 -13 63
-31 156 -40 205 -10 50 -28 136 -41 191 -26 116 -44 250 -74 549 -29 296 -48
467 -70 640 -17 131 -31 256 -71 626 -11 97 -2 134 33 149 31 13 209 47 288
55 36 3 97 10 135 15 164 21 587 28 833 14 129 -8 145 -1 156 65 9 57 26 66
125 66 l86 0 17 55 c10 30 22 73 28 95 6 22 19 51 31 64 18 22 27 24 95 23 99
-3 95 16 -7 40 -251 60 -776 125 -1314 163 -469 33 -1257 44 -1730 24z m-620
-609 c307 -11 564 -28 585 -39 21 -11 25 -84 7 -100 -12 -9 -61 -9 -212 -1
-109 6 -201 13 -205 15 -11 7 -810 18 -1240 16 -591 -2 -891 -14 -953 -38
l-49 -18 -19 24 c-23 28 -25 84 -4 105 8 8 34 17 58 20 172 23 1553 34 2032
16z m-2332 -78 c18 -30 18 -34 3 -57 -22 -34 -79 -34 -121 0 l-30 25 24 17
c41 30 85 53 96 50 5 -2 18 -18 28 -35z m3161 -18 c13 -34 7 -64 -14 -64 -25
0 -34 21 -26 55 7 28 31 33 40 9z m886 -24 c26 -14 37 -56 54 -215 9 -77 25
-219 36 -317 23 -201 25 -294 8 -349 -21 -70 -39 -52 -87 89 -24 70 -47 132
-51 137 -4 6 -17 42 -29 80 -21 64 -39 104 -133 302 -32 68 -69 117 -100 134
-19 10 -84 25 -272 60 -51 10 -72 19 -83 36 -31 48 -15 50 232 31 138 -10 175
-9 260 4 125 20 142 20 165 8z m-4054 -765 c29 -40 12 -97 -33 -112 -16 -5
-112 -9 -215 -8 -208 0 -221 4 -221 65 0 68 40 79 277 76 162 -2 180 -4 192
-21z m-233 -684 c14 -2 7 -68 -11 -87 -10 -10 -29 -37 -42 -59 -35 -57 -46
-66 -90 -72 -29 -4 -48 0 -75 17 l-36 22 3 66 c3 63 4 67 37 86 32 19 130 35
181 30 14 -2 28 -3 33 -3z m2990 -148 c23 -27 39 -161 41 -345 1 -191 0 -194
-75 -202 -37 -3 -51 0 -74 18 -37 30 -42 72 -35 323 5 177 7 193 25 207 28 21
98 20 118 -1z m1292 -648 c34 -33 33 -77 -1 -104 -34 -27 -47 -26 -78 2 -39
34 -43 71 -12 101 32 33 60 33 91 1z m-2150 -39 c12 -19 24 -117 31 -261 1
-33 7 -96 13 -140 6 -44 14 -114 17 -155 6 -70 5 -77 -18 -101 -27 -29 -49
-33 -323 -49 -159 -9 -192 -3 -214 38 -9 17 -30 376 -32 561 -2 116 -4 115
220 130 97 7 190 13 206 14 43 3 84 -12 100 -37z m-2593 -804 c9 -4 32 -21 51
-39 19 -17 48 -38 64 -47 17 -8 37 -26 46 -40 9 -13 30 -33 47 -42 34 -21 37
-40 11 -71 -15 -17 -36 -24 -102 -33 -106 -13 -243 -13 -290 0 -57 16 -116
121 -105 185 9 51 32 73 83 80 27 4 53 8 58 10 18 6 120 4 137 -3z m4340 -70
c17 -17 26 -323 30 -949 2 -330 0 -465 -8 -473 -6 -6 -54 -16 -105 -21 -227
-22 -309 -30 -384 -34 -94 -6 -286 -22 -435 -36 -135 -13 -229 -15 -257 -5
-12 4 -26 21 -32 39 -8 22 -10 245 -7 701 3 633 4 670 22 683 40 30 156 4 241
-53 19 -13 58 -25 93 -29 33 -4 63 -11 66 -16 7 -13 274 -12 274 1 0 6 8 10
19 10 23 0 66 18 104 44 35 24 107 96 107 108 0 4 9 17 21 29 19 19 30 20 129
17 72 -2 113 -7 122 -16z m-1374 -105 c13 -12 22 -37 26 -70 5 -49 8 -316 6
-522 -1 -49 1 -115 5 -145 3 -30 10 -156 16 -280 5 -124 14 -259 19 -300 14
-103 6 -116 -79 -129 -127 -20 -460 -51 -716 -66 -54 -4 -102 -8 -106 -11 -4
-2 -85 -11 -180 -19 -96 -8 -185 -17 -199 -20 -29 -6 -345 -26 -441 -28 -74
-2 -107 -21 -105 -60 l1 -22 217 4 c215 4 217 4 265 -21 26 -14 73 -28 103
-31 65 -8 83 -25 69 -66 -6 -16 -20 -33 -32 -38 -32 -15 -242 -42 -456 -58
-101 -8 -187 -18 -190 -21 -3 -3 -7 -58 -9 -122 -1 -65 -5 -144 -8 -178 -5
-55 -3 -63 20 -91 16 -19 49 -39 88 -53 95 -34 156 -67 174 -95 14 -21 17 -91
25 -522 5 -274 13 -595 17 -713 10 -263 6 -399 -14 -421 -15 -17 -10 -16 -364
-44 -107 -8 -202 -17 -210 -19 -8 -3 -58 -7 -110 -11 -186 -12 -554 -45 -715
-65 -317 -37 -417 -50 -463 -60 -51 -11 -54 -11 -77 15 -14 14 -25 30 -25 36
0 5 -4 9 -8 9 -5 0 -16 18 -25 39 -11 24 -39 56 -72 81 -61 47 -65 61 -34 122
20 39 21 46 9 113 -7 38 -17 78 -22 87 -4 9 -11 142 -14 294 -3 153 -7 281 -9
284 -1 3 -5 198 -6 434 l-4 429 26 19 c17 13 48 21 95 24 38 3 79 12 92 20
l23 15 -6 372 c-4 205 -11 394 -16 420 -18 96 -14 112 48 180 31 34 63 66 71
70 7 5 242 10 520 11 484 2 509 3 552 22 l44 20 -2 144 c-1 80 -7 213 -12 295
-18 272 -30 504 -30 568 0 60 1 63 33 79 31 16 241 43 257 33 5 -3 120 2 257
10 136 9 368 22 515 29 147 8 272 17 279 22 18 11 361 22 635 20 209 -1 234
-3 252 -19z m2218 6 c-2 -10 -11 -18 -22 -18 -10 0 -20 8 -22 18 -3 12 3 17
21 17 18 0 25 -5 23 -17z m14 -265 c0 -14 -45 -38 -71 -38 -9 0 -22 7 -30 16
-10 13 -10 17 2 25 22 14 99 11 99 -3z m-5048 -26 c8 -8 9 -20 2 -39 -7 -22
-18 -29 -54 -36 -106 -19 -197 13 -171 61 6 11 23 23 38 25 48 9 174 0 185
-11z m5071 -118 c-10 -7 -31 -13 -48 -14 l-30 0 24 13 c14 6 35 13 48 13 22 2
23 1 6 -12z m-5019 -184 c13 -13 -12 -40 -49 -56 -25 -10 -202 -19 -292 -15
-30 1 -61 47 -44 64 24 24 362 30 385 7z m-204 -169 c24 -8 24 -8 -14 -24 -47
-21 -50 -21 -89 0 -29 15 -30 17 -12 24 25 9 82 9 115 0z m6530 -150 c0 -5 -6
-11 -12 -14 -9 -3 -6 -10 10 -22 13 -9 22 -27 22 -43 0 -29 -15 -20 -23 13 -3
11 -6 0 -7 -25 l-2 -45 -9 40 c-13 65 -11 105 6 105 8 0 15 -4 15 -9z m210
-102 c0 -5 -4 -9 -10 -9 -5 0 -10 7 -10 16 0 8 5 12 10 9 6 -3 10 -10 10 -16z
m-103 -5 c-3 -3 -12 -4 -19 -1 -8 3 -5 6 6 6 11 1 17 -2 13 -5z m-102 -54 c3
-5 1 -10 -4 -10 -6 0 -11 5 -11 10 0 6 2 10 4 10 3 0 8 -4 11 -10z m121 -58
c-11 -11 -16 -12 -16 -4 0 7 5 12 11 12 6 0 8 7 5 16 -3 9 -3 21 1 27 5 8 9 3
11 -12 2 -13 -3 -31 -12 -39z m-19 26 c-3 -8 -6 -5 -6 6 -1 11 2 17 5 13 3 -3
4 -12 1 -19z m88 -35 c-10 -9 -13 -24 -9 -41 3 -15 2 -22 -3 -16 -4 6 -16 13
-25 17 -24 9 -23 28 2 34 11 3 20 11 20 19 0 8 6 11 15 8 13 -5 13 -8 0 -21z
m-175 7 c0 -5 -4 -10 -10 -10 -5 0 -10 5 -10 10 0 6 5 10 10 10 6 0 10 -4 10
-10z m41 -25 c2 -39 2 -42 14 -69 5 -11 4 -26 -3 -37 -15 -23 -15 -49 -2 -49
6 0 10 6 10 14 0 8 7 17 16 20 15 6 15 4 0 -18 -9 -14 -16 -34 -16 -46 0 -11
-4 -20 -10 -20 -5 0 -10 8 -10 18 0 10 -3 22 -6 25 -11 11 -15 197 -4 197 6 0
11 -16 11 -35z m75 -47 c5 -7 3 -8 -6 -3 -7 4 -16 2 -21 -6 -7 -11 -9 -10 -9
4 0 19 25 23 36 5z m122 -98 c10 -16 10 -24 0 -40 -9 -14 -10 -23 -3 -28 6 -4
18 -21 27 -38 15 -27 16 -33 3 -50 -13 -17 -14 -18 -15 -1 0 23 -13 22 -35 -3
-21 -23 -76 -41 -105 -33 -11 3 -23 16 -26 29 -7 26 -19 31 -27 12 -4 -8 -6
-9 -6 -2 -1 6 6 17 14 24 20 17 19 32 -2 28 -11 -2 -18 3 -18 12 0 16 60 32
89 23 13 -4 16 -2 11 7 -6 10 -1 11 18 6 20 -5 27 -2 32 14 3 11 3 29 0 40 -5
15 -2 20 12 20 10 0 24 -9 31 -20z m-2177 -80 c24 -13 44 -54 52 -103 5 -32 2
-43 -21 -68 l-27 -30 -445 -49 c-521 -58 -1134 -114 -1167 -105 -12 3 -30 16
-39 30 -25 39 0 67 88 100 40 16 105 45 144 67 54 29 94 42 162 53 213 35 978
108 1180 114 29 0 62 -4 73 -9z m-5792 -242 c30 -26 32 -32 18 -40 -23 -12
-22 -79 2 -148 14 -42 18 -79 17 -152 -1 -54 -5 -101 -9 -105 -4 -3 -7 -21 -7
-40 0 -18 -4 -33 -9 -33 -5 0 -19 -25 -30 -56 -37 -97 -50 -117 -74 -110 -11
3 -27 1 -33 -5 -18 -15 -65 -7 -77 12 -12 19 -1 83 17 101 14 15 12 103 -4
153 -5 16 -12 81 -16 143 l-7 114 28 22 c23 19 28 31 30 77 4 87 12 96 85 98
26 0 44 -8 69 -31z m8641 12 c0 -5 -4 -10 -10 -10 -5 0 -10 5 -10 10 0 6 5 10
10 10 6 0 10 -4 10 -10z m-4753 -66 c7 -19 -38 -64 -65 -64 -19 0 -62 34 -62
50 0 30 116 43 127 14z m8898 -204 c-3 -5 -18 -9 -33 -9 l-27 1 30 8 c17 4 31
8 33 9 2 0 0 -3 -3 -9z m-150 -10 c13 -6 15 -9 5 -9 -8 0 -22 4 -30 9 -18 12
-2 12 25 0z m315 0 c-8 -5 -22 -10 -30 -10 -13 0 -13 1 0 10 8 5 22 10 30 10
13 0 13 -1 0 -10z m-80 -50 c0 -5 -7 -10 -16 -10 -8 0 -12 5 -9 10 3 6 10 10
16 10 5 0 9 -4 9 -10z m1166 -9 c24 -15 33 -28 37 -58 7 -56 -11 -71 -55 -46
-18 11 -41 18 -50 16 -25 -6 -23 32 2 57 11 11 20 27 20 35 0 20 9 19 46 -4z
m-1216 -21 c-20 -13 -33 -13 -25 0 3 6 14 10 23 10 15 0 15 -2 2 -10z m-12686
-38 c16 -31 24 -199 11 -246 -6 -20 -1 -44 16 -85 24 -58 26 -89 9 -121 -10
-18 -20 -19 -53 -5 -33 14 -29 -3 16 -58 24 -30 47 -70 51 -89 12 -64 -26
-118 -67 -97 -68 37 -71 -48 -7 -208 36 -88 37 -111 9 -147 -17 -22 -28 -27
-58 -24 l-36 3 -9 65 -8 65 -21 -47 c-23 -54 -35 -61 -75 -47 -23 8 -36 25
-60 77 -58 126 -74 241 -38 271 18 15 86 15 123 0 33 -14 59 -5 33 11 -25 15
-15 170 13 215 14 22 28 33 38 31 9 -2 23 0 30 5 11 7 11 11 -3 21 -11 8 -18
31 -20 64 -3 44 0 54 20 70 22 18 23 23 14 79 -7 44 -7 73 2 105 14 50 44 120
51 120 2 0 11 -13 19 -28z m11394 -7 c28 -25 28 -39 -1 -52 -19 -9 -28 -6 -57
19 -34 28 -35 29 -12 35 18 4 20 8 10 15 -9 6 -5 8 12 5 14 -1 35 -11 48 -22z
m-5047 -122 c15 -40 -10 -166 -36 -185 -6 -4 -3 -12 8 -21 17 -12 18 -25 13
-137 -3 -69 -5 -128 -5 -132 -1 -5 -19 -8 -41 -8 -29 0 -40 4 -40 15 0 13 -20
15 -124 15 -98 0 -126 3 -136 15 -11 13 -8 15 14 15 24 0 26 4 26 40 0 22 -4
40 -10 40 -5 0 -10 -7 -10 -15 0 -11 -12 -15 -44 -15 -50 0 -59 15 -49 85 3
22 7 78 9 125 1 47 3 90 3 97 1 7 9 17 19 22 19 10 25 11 216 41 71 11 132 22
134 25 15 14 44 2 53 -22z m-424 -445 c-3 -8 -6 -5 -6 6 -1 11 2 17 5 13 3 -3
4 -12 1 -19z m2470 -250 c-3 -7 -5 -2 -5 12 0 14 2 19 5 13 2 -7 2 -19 0 -25z
m20 10 c-3 -8 -6 -5 -6 6 -1 11 2 17 5 13 3 -3 4 -12 1 -19z m-40 -520 c-3 -8
-6 -5 -6 6 -1 11 2 17 5 13 3 -3 4 -12 1 -19z m-4 -103 c-3 -9 -8 -14 -10 -11
-3 3 -2 9 2 15 9 16 15 13 8 -4z m51 -24 c3 -5 -1 -11 -9 -15 -9 -3 -15 0 -15
9 0 16 16 20 24 6z m-26 -55 c-7 -8 -15 -12 -17 -11 -5 6 10 25 20 25 5 0 4
-6 -3 -14z m-8388 -1586 c0 -5 21 -10 46 -10 38 0 45 -3 40 -16 -3 -9 -6 -20
-6 -25 0 -17 -72 -10 -86 9 -16 20 -18 52 -4 52 6 0 10 -4 10 -10z"/>
<path d="M5817 6073 c-11 -10 -8 -81 4 -88 5 -4 20 -4 32 -1 16 4 22 13 22 34
0 44 -36 78 -58 55z"/>
<path d="M4145 2742 c-47 -3 -91 -22 -52 -22 18 0 50 -16 77 -37 51 -40 282
-62 445 -44 117 14 136 25 114 68 -8 15 -18 31 -24 36 -9 7 -450 6 -560 -1z"/>
<path d="M5653 9171 c-24 -4 -46 -10 -50 -14 -7 -8 79 2 117 14 l25 7 -25 0
c-14 0 -44 -4 -67 -7z"/>
<path d="M12290 8689 c-110 -19 -134 -19 -168 2 -21 13 -27 11 -82 -19 -85
-48 -119 -53 -127 -21 -5 16 -11 19 -34 14 -21 -5 -29 -3 -29 7 0 10 -2 10 -9
-1 -5 -8 -16 -11 -25 -8 -9 4 -26 2 -39 -4 -22 -10 -166 1 -214 16 -17 6 -31
-2 -67 -38 -37 -36 -47 -54 -52 -90 -7 -48 6 -68 31 -47 12 10 15 9 15 -7 0
-10 -5 -24 -11 -30 -20 -20 9 -25 45 -8 32 15 37 15 65 0 18 -9 29 -20 26 -26
-4 -5 -10 -7 -15 -4 -5 3 -11 1 -14 -3 -3 -5 19 -15 49 -22 53 -13 74 -30 38
-30 -17 -1 -17 -1 -1 -11 12 -7 36 -5 80 7 111 28 137 50 147 128 12 85 67
131 113 94 8 -7 23 -40 32 -73 26 -94 47 -128 90 -149 36 -18 40 -18 66 -2 16
9 38 16 50 16 33 0 110 21 110 30 0 5 -8 10 -17 13 -15 3 -13 6 10 17 15 7 27
21 27 32 0 17 5 18 45 12 28 -4 56 -2 74 5 26 11 28 15 21 49 -9 52 -39 112
-53 106 -7 -2 -17 5 -22 17 -20 44 -41 48 -155 28z"/>
<path d="M11161 8498 c0 -29 4 -62 8 -73 7 -18 10 -15 25 19 20 48 20 51 0 81
-25 38 -34 30 -33 -27z"/>
<path d="M11245 8449 c4 -12 1 -21 -10 -25 -29 -11 -62 -104 -37 -104 4 0 13
-13 20 -30 9 -19 21 -30 33 -30 11 0 17 4 14 10 -3 5 1 20 9 32 8 13 18 42 22
65 6 39 4 45 -25 72 -25 24 -31 26 -26 10z"/>
<path d="M12160 8265 c0 -8 4 -15 9 -15 14 0 29 -53 21 -76 -7 -18 -22 -21
-141 -32 -264 -22 -286 -17 -276 58 3 22 2 40 -1 40 -4 0 -43 -18 -86 -40 -44
-22 -85 -40 -92 -40 -7 0 -14 -4 -16 -8 -7 -17 -76 -52 -106 -54 -28 -2 -32
-6 -32 -30 0 -15 -4 -29 -8 -32 -12 -7 -13 -71 -2 -100 7 -18 5 -26 -6 -30 -8
-3 -14 -1 -14 4 0 6 -7 10 -16 10 -8 0 -12 -5 -9 -10 4 -6 2 -17 -4 -24 -7 -8
-9 -27 -6 -44 5 -33 62 -163 74 -172 17 -12 69 -110 61 -115 -6 -3 -6 -15 0
-30 5 -14 7 -32 3 -42 -4 -11 -3 -14 5 -9 17 10 15 -23 -3 -58 -8 -15 -15 -39
-15 -52 0 -13 -5 -24 -11 -24 -7 0 -10 -12 -7 -30 5 -36 -4 -38 -25 -6 -13 19
-14 32 -7 57 6 19 10 63 10 99 l0 65 -35 -40 c-49 -58 -63 -107 -60 -227 1
-57 0 -91 -2 -77 -3 22 -8 26 -25 21 -21 -5 -21 -4 -5 19 21 29 21 39 2 39 -8
0 -21 -15 -30 -33 -11 -23 -26 -35 -56 -45 -22 -7 -44 -10 -50 -7 -5 4 -9 -1
-9 -9 0 -9 -6 -16 -14 -16 -14 0 -17 -65 -3 -87 4 -6 2 -15 -4 -18 -5 -4 -8
-13 -5 -21 3 -9 -2 -17 -12 -20 -9 -3 -25 -10 -34 -15 -10 -5 -25 -9 -33 -9
-9 0 -18 -7 -21 -15 -5 -12 -9 -13 -21 -4 -18 16 -32 2 -43 -44 -5 -26 -4 -39
6 -47 7 -7 11 -17 8 -24 -2 -6 10 -22 27 -35 l32 -24 -7 44 -7 44 26 -27 c14
-16 30 -28 36 -28 6 0 7 -4 4 -10 -6 -10 6 -14 37 -11 13 2 16 -3 11 -14 -3
-10 0 -20 6 -25 15 -9 20 -82 6 -87 -6 -1 -24 9 -40 24 -16 16 -33 27 -37 26
-11 -4 -76 33 -128 73 -52 39 -136 84 -144 76 -7 -6 26 -62 37 -62 17 0 167
-167 167 -186 0 -7 -10 -14 -22 -16 -20 -3 -23 -8 -20 -38 2 -19 12 -47 23
-62 10 -15 19 -32 19 -38 0 -6 16 -28 35 -48 19 -20 35 -47 35 -59 0 -14 6
-23 15 -23 8 0 15 -4 15 -10 0 -5 9 -10 20 -10 22 0 25 -7 11 -29 -7 -10 -12
-9 -23 8 -9 12 -19 21 -24 20 -22 -4 -33 3 -41 25 -19 57 -222 180 -286 174
-29 -3 -32 -6 -34 -38 0 -19 -1 -40 -2 -47 -1 -6 -18 -13 -38 -15 -32 -3 -38
-7 -41 -28 -2 -20 12 -40 69 -95 40 -39 103 -100 141 -136 64 -63 81 -89 58
-89 -5 0 -10 3 -10 8 0 21 -106 111 -162 137 -65 31 -80 41 -129 89 -26 25
-34 28 -49 18 -16 -10 -23 -5 -55 34 -43 52 -96 104 -108 104 -9 0 36 -52 80
-93 18 -16 30 -34 27 -38 -3 -5 -1 -9 4 -9 5 0 12 -9 15 -20 4 -17 0 -20 -29
-20 -26 0 -46 11 -95 55 -89 79 -184 117 -197 78 -2 -7 15 -31 37 -53 23 -23
41 -44 41 -49 0 -4 -9 -16 -20 -26 -16 -15 -24 -16 -45 -7 -13 6 -27 7 -30 2
-3 -4 1 -11 7 -13 10 -4 9 -8 -2 -16 -10 -7 -11 -11 -2 -11 19 0 14 -18 -8
-25 -13 -4 -20 -15 -20 -30 0 -15 -15 -38 -37 -60 -27 -26 -37 -44 -35 -60 2
-18 -2 -24 -19 -27 -24 -3 -39 -28 -17 -28 15 0 22 -37 8 -45 -14 -9 30 -72
102 -148 37 -39 66 -73 63 -75 -2 -2 -11 3 -20 12 -9 9 -20 16 -25 16 -7 0
-26 14 -106 79 -6 5 -27 23 -47 41 l-36 31 -6 -28 c-17 -79 -29 -113 -40 -113
-22 0 -29 -176 -10 -265 3 -16 1 -39 -5 -51 -9 -16 -8 -31 4 -68 9 -26 16 -53
16 -61 0 -8 7 -15 15 -15 18 0 20 -16 3 -23 -7 -3 -4 -6 6 -6 11 -1 16 -4 13
-7 -3 -4 -2 -14 3 -24 12 -22 1 -34 -17 -19 -7 6 -13 8 -13 3 0 -5 -5 -2 -10
6 -8 12 -10 10 -10 -8 0 -13 4 -21 9 -18 11 7 23 -37 15 -58 -4 -11 0 -16 12
-17 11 0 -2 -7 -28 -16 -49 -16 -65 -42 -28 -44 11 -1 25 -3 30 -4 6 -1 16 -3
23 -4 7 0 20 -19 29 -40 17 -40 17 -40 67 -35 32 3 52 0 57 -7 5 -8 3 -9 -7
-4 -12 8 -12 6 0 -8 12 -15 11 -17 -13 -17 -14 0 -26 -4 -26 -9 0 -5 -11 -11
-25 -13 -14 -3 -25 -1 -25 3 0 5 -9 9 -20 9 -11 0 -20 -4 -20 -10 0 -5 -15
-10 -34 -10 -38 0 -96 -18 -96 -30 0 -5 16 -14 36 -20 19 -7 38 -19 41 -27 3
-8 9 -11 12 -6 25 37 109 67 146 53 11 -4 34 -3 50 2 17 5 80 13 140 19 61 5
166 21 235 36 126 26 287 52 326 53 51 1 66 -34 65 -146 0 -70 -14 -114 -35
-114 -8 0 -18 -10 -21 -21 -5 -15 -9 -18 -15 -9 -6 9 -9 9 -15 1 -4 -7 -2 -18
4 -25 7 -8 7 -23 2 -44 -6 -19 -6 -34 0 -37 5 -3 3 -15 -4 -26 -10 -16 -9 -21
3 -29 11 -7 5 -10 -23 -10 -38 0 -49 -6 -93 -50 -19 -20 -21 -26 -9 -28 8 -2
15 -8 15 -14 0 -6 -15 -7 -40 -3 -32 5 -41 3 -46 -9 -3 -9 -16 -16 -29 -16
-12 0 -36 -5 -53 -11 -28 -9 -30 -14 -27 -47 3 -28 3 -31 -3 -11 -7 25 -8 25
-32 10 -14 -9 -25 -26 -26 -38 0 -18 5 -23 26 -23 36 0 52 -17 37 -42 -9 -13
-9 -21 -1 -26 6 -4 14 -17 18 -29 4 -11 18 -24 31 -27 14 -4 25 -10 25 -15 0
-5 18 -12 39 -16 22 -4 42 -13 45 -21 3 -8 11 -14 18 -14 8 0 21 -8 29 -17 69
-78 163 -132 297 -173 53 -16 122 -39 152 -50 30 -12 91 -35 135 -51 44 -16
88 -33 97 -39 10 -5 25 -10 33 -10 8 0 32 -9 52 -20 21 -11 49 -20 64 -20 28
0 118 -24 164 -44 17 -8 64 -23 105 -36 41 -12 86 -26 100 -31 33 -12 241 -50
305 -56 28 -2 118 -11 200 -19 83 -8 263 -15 400 -16 247 -1 251 -1 340 27 50
15 123 34 164 42 41 8 89 22 105 30 20 11 75 19 159 24 102 6 135 12 163 28
19 12 42 21 50 21 8 0 14 5 14 10 0 6 7 10 15 10 9 0 12 6 9 15 -4 8 -1 15 5
15 6 0 11 11 11 23 0 29 55 107 75 107 25 0 48 -46 42 -87 -8 -64 -49 -166
-79 -199 -16 -17 -47 -40 -69 -50 -39 -19 -50 -34 -25 -34 8 0 64 -25 124 -55
61 -30 113 -55 117 -55 4 0 4 12 1 26 -9 36 -53 371 -60 464 -10 113 -23 254
-55 590 -17 168 -35 361 -41 430 -29 343 -29 338 -14 387 7 27 27 104 44 173
78 323 131 468 177 489 47 22 157 -5 312 -75 40 -19 81 -34 91 -34 9 0 65 -24
124 -54 207 -105 384 -165 661 -224 127 -26 131 -28 175 -72 25 -25 54 -57 65
-71 l20 -27 90 9 c259 25 315 32 315 41 0 6 -14 8 -34 4 -18 -4 -44 -2 -57 4
-20 8 -18 9 16 5 l40 -5 -45 14 c-25 8 -40 15 -35 15 6 1 4 5 -4 10 -12 8 -12
12 2 26 10 9 17 24 17 33 0 21 -28 65 -60 92 -18 16 -21 23 -11 29 10 7 10 20
0 70 -10 46 -10 64 -2 69 9 5 9 17 0 45 -7 20 -15 37 -19 37 -5 0 -8 12 -8 26
0 17 -6 28 -20 31 -11 3 -20 9 -20 14 0 16 -63 68 -97 81 -18 7 -33 15 -33 20
0 9 -57 35 -92 41 -18 2 -29 -1 -33 -11 -3 -10 -16 -13 -40 -10 -29 3 -35 1
-35 -14 0 -10 -4 -18 -9 -18 -5 0 -12 -13 -16 -30 -6 -27 -15 -35 -37 -31 -5
0 -8 -4 -8 -11 0 -9 -3 -9 -12 0 -7 7 -28 12 -48 12 -23 0 -46 8 -60 20 -16
14 -37 20 -72 20 -26 0 -48 5 -48 10 0 6 -17 10 -38 10 -66 0 -76 52 -26 137
15 27 32 58 38 70 6 13 14 23 18 23 16 0 38 61 38 105 0 34 -4 45 -15 45 -9 0
-18 7 -22 16 -9 24 -97 114 -111 114 -7 0 -12 -7 -12 -15 0 -8 -7 -15 -15 -15
-9 0 -15 9 -15 25 0 14 -6 32 -12 40 -37 43 -68 74 -68 68 0 -4 -5 -2 -12 5
-7 7 -20 12 -30 12 -10 0 -18 6 -18 13 0 13 -47 37 -100 52 -14 4 -33 16 -43
26 -10 11 -28 20 -40 20 -12 1 -30 2 -40 3 -10 1 -21 6 -25 12 -4 6 -18 15
-32 19 -14 4 -33 16 -43 26 -10 11 -26 19 -37 19 -10 0 -25 6 -32 13 -7 7 -40
19 -72 26 -35 8 -54 16 -46 21 7 5 -2 10 -26 15 -42 7 -115 42 -126 59 -6 8
-8 7 -8 -1 0 -31 -42 -10 -77 37 -61 82 -69 66 -24 -50 23 -61 56 -182 35
-130 -15 37 -39 86 -46 95 -5 6 -20 24 -34 40 -14 17 -33 46 -44 65 -20 39
-67 90 -83 90 -6 0 -7 -16 -3 -39 4 -24 2 -42 -4 -46 -8 -5 -7 -11 1 -21 9
-11 8 -15 -6 -20 -11 -5 -29 5 -53 28 -106 100 -147 135 -175 153 -18 10 -34
22 -37 26 -3 3 -16 10 -30 14 l-25 7 24 -18 c14 -10 49 -42 79 -72 43 -42 52
-56 41 -63 -8 -5 -22 -6 -31 -3 -13 4 -18 0 -18 -16 0 -20 -4 -22 -34 -16 -29
6 -35 3 -41 -14 -9 -28 -30 -25 -108 15 -92 47 -117 46 -146 -4 -11 -21 -11
-25 2 -33 32 -17 47 -40 47 -69 0 -16 4 -29 8 -29 12 0 40 -54 35 -67 -3 -7
-13 -13 -24 -13 -17 0 -23 10 -20 32 1 13 -36 19 -61 9 -15 -5 -31 -5 -41 0
-36 21 -16 -30 45 -112 34 -46 65 -85 70 -87 4 -2 8 -9 8 -16 0 -7 9 -21 20
-31 11 -10 20 -26 20 -37 0 -10 4 -18 9 -18 15 0 61 -78 55 -94 -3 -9 3 -17
15 -21 12 -3 19 -10 16 -15 -3 -5 3 -15 15 -22 11 -7 20 -19 20 -26 0 -10 -17
-12 -67 -10 -67 3 -68 3 -66 -22 3 -38 -7 -90 -17 -90 -6 0 -10 6 -10 14 0 7
-7 19 -15 26 -8 7 -15 25 -15 41 0 16 -6 39 -12 50 -11 18 -10 23 0 26 10 4 8
9 -7 20 -12 8 -21 23 -21 34 0 10 -9 38 -19 62 -11 23 -38 94 -60 157 -68 197
-112 305 -127 313 -11 7 -12 12 -4 22 8 10 1 30 -31 82 -48 79 -54 86 -45 56
9 -27 -5 -30 -39 -7 l-24 16 4 -56 c3 -39 0 -56 -8 -56 -8 0 -8 -3 -2 -8 6 -4
10 -18 10 -32 0 -14 8 -30 19 -36 16 -10 14 -13 -23 -27 -65 -26 -110 -22
-151 14 -40 34 -71 49 -105 49 -23 0 -27 13 -12 37 15 24 24 102 16 145 -10
61 -14 74 -43 161 -14 43 -26 83 -26 90 0 6 -11 25 -24 42 l-24 29 -4 -134
c-4 -125 -6 -139 -34 -192 -30 -60 -50 -75 -42 -33 3 14 2 25 -1 25 -3 0 -12
4 -20 9 -12 8 -12 13 -3 24 7 8 13 32 15 54 1 22 7 47 13 54 6 8 12 68 13 134
2 66 7 125 13 132 6 8 6 18 -1 31 -8 15 -5 30 10 62 12 24 27 65 35 91 8 27
18 50 23 53 5 3 6 17 4 31 -3 13 -9 22 -13 20 -5 -3 -11 -1 -14 4 -4 6 -18 6
-35 1 -16 -4 -32 -6 -35 -3 -5 5 -4 8 34 83 28 57 24 94 -10 99 -14 1 -36 11
-50 21 -14 10 -45 21 -70 25 -25 4 -90 29 -146 56 -108 53 -124 57 -124 34z
m-356 -219 c-7 -19 -16 -20 -32 -4 -9 9 -12 9 -12 0 0 -6 -7 -9 -15 -6 -8 4
-15 13 -15 20 0 8 7 17 15 20 8 4 15 12 15 20 0 8 9 5 25 -10 16 -15 23 -30
19 -40z m39 -49 c4 3 7 2 7 -4 0 -12 -20 -18 -94 -29 -39 -5 -48 -4 -44 7 3 8
24 17 48 21 23 4 45 10 48 13 3 2 10 0 17 -5 7 -5 15 -7 18 -3z m397 -20 c0
-5 -12 -6 -27 -2 -34 8 -37 11 -29 24 8 12 56 -7 56 -22z m-51 -104 c1 -7 -10
-13 -23 -13 -13 0 -26 -7 -30 -15 -3 -8 -16 -15 -30 -15 -14 0 -28 -4 -31 -10
-10 -16 -216 -15 -226 1 -4 7 -8 5 -12 -5 -9 -22 59 -40 153 -40 67 -1 83 3
151 37 107 53 146 47 171 -24 8 -24 13 -27 33 -19 27 10 38 1 24 -20 -8 -13
-10 -13 -19 0 -7 12 -12 12 -22 2 -9 -9 -9 -12 0 -12 7 0 12 -8 12 -18 0 -10
6 -24 12 -30 10 -10 10 -15 -1 -21 -7 -5 -10 -14 -7 -20 5 -7 -1 -11 -13 -11
-18 0 -21 -6 -21 -38 0 -42 -12 -57 -72 -90 -38 -22 -179 -46 -188 -33 -6 9
-50 9 -50 1 0 -4 -42 -6 -92 -5 -69 1 -103 6 -133 20 -50 25 -97 76 -84 92 17
19 -11 53 -38 47 -20 -5 -23 -2 -23 21 0 20 -4 26 -16 21 -9 -3 -12 -2 -8 5 3
6 17 8 30 5 39 -10 27 8 -21 32 -25 12 -45 26 -45 32 0 14 13 13 28 -2 9 -9
12 -9 12 0 0 7 5 12 10 12 6 0 10 -7 10 -15 0 -9 10 -15 26 -15 21 0 25 4 19
18 -14 36 -17 72 -7 72 6 0 18 7 26 16 15 14 19 14 52 -5 48 -28 57 -27 49 9
-4 16 -4 39 0 50 6 20 8 20 30 6 17 -11 25 -12 34 -3 8 8 16 9 29 0 14 -8 23
-7 37 3 25 19 31 18 55 -8 17 -18 20 -19 20 -5 0 24 47 33 68 13 17 -14 20
-14 36 2 16 16 18 16 36 -8 19 -24 20 -24 20 -4 0 43 27 31 29 -13z m-626 11
c18 -7 21 -18 17 -69 -3 -42 -9 -44 -32 -12 -22 31 -33 102 -14 92 6 -3 19 -8
29 -11z m1131 -843 c10 -11 16 -25 14 -32 -2 -7 -14 1 -27 19 -24 35 -15 44
13 13z m-794 -343 c0 -16 -3 -19 -11 -11 -6 6 -8 16 -5 22 11 17 16 13 16 -11z
m-495 -118 c25 -11 -1 -11 -35 0 -20 6 -21 8 -5 8 11 0 29 -3 40 -8z m105 -20
c21 -6 22 -8 8 -14 -9 -4 -29 -1 -45 8 -22 12 -24 15 -8 15 11 -1 31 -4 45 -9z
m-350 -40 c0 -5 -2 -10 -4 -10 -3 0 -8 5 -11 10 -3 6 -1 10 4 10 6 0 11 -4 11
-10z m1249 -36 c6 -14 11 -33 11 -44 0 -23 -39 -38 -51 -19 -10 16 -12 83 -3
92 11 10 31 -3 43 -29z m-1259 -114 c-19 -13 -30 -13 -30 0 0 6 10 10 23 10
18 0 19 -2 7 -10z m1446 -15 c4 -8 11 -15 16 -15 15 0 47 -43 48 -62 0 -10 4
-18 8 -18 4 0 13 -12 19 -27 13 -30 34 -65 44 -73 14 -11 39 -71 39 -93 0 -12
6 -29 13 -36 10 -11 9 -13 -3 -9 -8 2 -24 22 -35 44 -61 115 -79 143 -86 138
-5 -3 -4 -14 1 -25 14 -24 -2 -25 -24 0 -9 10 -14 25 -10 35 5 12 0 16 -20 16
-27 0 -33 9 -16 26 6 6 6 15 0 24 -8 12 -12 13 -19 2 -6 -11 -10 -10 -15 4 -4
11 -1 21 9 26 10 6 13 17 9 34 -7 26 13 35 22 9z m-141 -106 l38 -38 -41 3
c-40 3 -72 19 -72 37 0 5 7 9 16 9 10 0 14 6 10 18 -2 9 -7 33 -10 52 l-5 35
13 -39 c7 -22 30 -56 51 -77z m-1095 -259 c0 -5 -4 -10 -10 -10 -5 0 -10 5
-10 10 0 6 5 10 10 10 6 0 10 -4 10 -10z m105 -55 c18 -8 17 -9 -8 -13 -34 -4
-40 0 -31 22 4 10 10 14 13 9 3 -5 15 -13 26 -18z m76 -95 c17 0 9 -22 -18
-51 -28 -29 -53 -38 -53 -19 0 6 5 10 10 10 6 0 10 7 10 16 0 12 -7 15 -24 12
-27 -5 -40 11 -30 37 6 15 44 22 44 7 0 -4 9 -13 20 -20 18 -11 20 -10 20 8 0
11 -7 20 -15 20 -8 0 -15 5 -15 10 0 6 7 13 15 16 8 4 16 14 17 23 1 9 3 -3 5
-26 2 -24 8 -43 14 -43z m22 -87 c-7 -2 -21 -2 -30 0 -10 3 -4 5 12 5 17 0 24
-2 18 -5z m-1218 -51 c-3 -3 -11 0 -18 7 -9 10 -8 11 6 5 10 -3 15 -9 12 -12z
m-155 -422 c24 -15 7 -18 -20 -3 -14 7 -18 13 -10 13 8 0 22 -4 30 -10z m-80
-71 c0 -6 10 -8 23 -4 17 5 19 4 7 -4 -20 -14 -87 -14 -95 0 -11 17 27 39 47
28 10 -5 18 -14 18 -20z m535 -179 c-3 -5 -12 -10 -18 -10 -7 0 -6 4 3 10 19
12 23 12 15 0z m-275 -50 c0 -5 -4 -10 -10 -10 -5 0 -10 5 -10 10 0 6 5 10 10
10 6 0 10 -4 10 -10z m280 -581 c13 -9 13 -10 -1 -6 -9 3 -22 0 -28 -6 -8 -8
-11 -8 -11 0 0 6 -8 14 -17 16 -10 3 -5 5 12 6 17 0 37 -4 45 -10z m67 5 c-3
-3 -12 -4 -19 -1 -8 3 -5 6 6 6 11 1 17 -2 13 -5z"/>
<path d="M12057 7763 c-8 -8 -19 -9 -147 -21 -52 -5 -89 -10 -82 -10 17 -3 15
-22 -2 -22 -13 0 -36 -48 -36 -76 0 -14 63 -54 86 -54 8 0 22 -4 32 -10 71
-39 89 -42 136 -26 26 9 57 16 69 16 12 1 33 7 47 15 14 8 40 14 58 15 21 0
32 5 30 13 -3 16 12 71 21 77 5 3 5 14 0 25 -6 15 -8 16 -8 4 -1 -26 -51 -41
-51 -16 0 7 -15 27 -34 45 -27 25 -43 32 -73 32 -22 0 -43 -3 -46 -7z"/>
<path d="M12637 8240 c-4 -14 -7 -51 -7 -82 0 -54 2 -58 27 -64 29 -8 73 12
81 35 3 8 0 11 -5 8 -5 -3 -15 3 -23 13 -8 10 -17 17 -22 14 -4 -3 -8 -1 -8 5
0 6 10 16 23 23 21 12 21 13 -13 18 -26 4 -36 11 -40 30 l-6 25 -7 -25z"/>
<path d="M12760 8240 c0 -5 5 -10 10 -10 6 0 10 5 10 10 0 6 -4 10 -10 10 -5
0 -10 -4 -10 -10z"/>
<path d="M11266 8091 c-4 -5 7 -17 24 -26 28 -14 31 -14 36 0 8 19 6 22 -27
30 -15 4 -30 2 -33 -4z"/>
<path d="M12840 7483 c1 -5 22 -25 48 -45 26 -21 62 -52 80 -68 46 -44 40 -21
-13 43 -25 31 -58 60 -76 66 -38 13 -39 13 -39 4z"/>
<path d="M13271 7044 c0 -11 3 -14 6 -6 3 7 2 16 -1 19 -3 4 -6 -2 -5 -13z"/>
<path d="M10350 6537 c0 -2 14 -16 31 -33 16 -16 28 -22 24 -14 -5 13 -55 56
-55 47z"/>
<path d="M15905 5520 c-8 -13 5 -13 25 0 13 8 13 10 -2 10 -9 0 -20 -4 -23
-10z"/>
<path d="M15978 5493 c7 -3 16 -2 19 1 4 3 -2 6 -13 5 -11 0 -14 -3 -6 -6z"/>
<path d="M15258 5204 c-8 -12 46 -471 56 -481 10 -9 4 57 -25 302 -23 191 -23
193 -31 179z"/>
<path d="M15147 5150 c3 -30 7 -57 9 -59 8 -9 2 75 -6 94 -5 12 -6 -1 -3 -35z"/>
<path d="M15177 5154 c3 -27 7 -51 9 -53 8 -9 3 75 -5 88 -5 8 -7 -5 -4 -35z"/>
<path d="M15220 5194 c0 -25 53 -470 56 -473 2 -2 6 -2 8 0 6 6 -49 468 -57
476 -4 3 -7 2 -7 -3z"/>
<path d="M15066 5173 c2 -10 15 -119 29 -242 14 -124 27 -226 28 -227 2 -2 13
-1 26 3 17 4 21 11 18 27 -3 11 -16 119 -29 239 l-23 217 -26 0 c-21 0 -26 -4
-23 -17z"/>
<path d="M14908 5175 c-3 -6 -2 -32 2 -60 4 -27 11 -84 14 -125 11 -121 33
-291 40 -297 10 -11 7 55 -15 251 -20 192 -30 248 -41 231z"/>
<path d="M14942 5155 c0 -16 2 -22 5 -12 2 9 2 23 0 30 -3 6 -5 -1 -5 -18z"/>
<path d="M14248 5163 c6 -2 18 -2 25 0 6 3 1 5 -13 5 -14 0 -19 -2 -12 -5z"/>
<path d="M14817 5115 c3 -33 7 -62 9 -64 7 -8 2 63 -7 94 -5 20 -6 9 -2 -30z"/>
<path d="M14710 5146 c0 -35 50 -460 55 -464 13 -14 15 13 5 94 -12 109 -40
369 -40 377 0 4 -4 7 -10 7 -5 0 -10 -6 -10 -14z"/>
<path d="M14791 5144 c0 -11 3 -14 6 -6 3 7 2 16 -1 19 -3 4 -6 -2 -5 -13z"/>
<path d="M14883 5125 c0 -22 2 -30 4 -17 2 12 2 30 0 40 -3 9 -5 -1 -4 -23z"/>
<path d="M16231 5144 c0 -11 3 -14 6 -6 3 7 2 16 -1 19 -3 4 -6 -2 -5 -13z"/>
<path d="M14571 5129 c-1 -14 3 -61 9 -105 5 -43 17 -146 26 -229 9 -82 21
-154 26 -160 7 -7 9 0 5 21 -3 17 -15 127 -27 245 -12 118 -25 223 -30 234 -8
18 -9 18 -9 -6z"/>
<path d="M14441 5139 c-2 -16 51 -474 55 -478 7 -8 5 29 -17 239 -11 113 -24
214 -29 225 -5 11 -9 17 -9 14z"/>
<path d="M14475 5068 c18 -185 43 -397 49 -406 3 -6 15 -8 26 -5 14 4 18 11
15 27 -5 21 -30 258 -42 389 -6 63 -7 67 -30 67 -25 0 -25 0 -18 -72z"/>
<path d="M14533 5100 c0 -25 2 -35 4 -22 2 12 2 32 0 45 -2 12 -4 2 -4 -23z"/>
<path d="M14320 5114 c0 -17 37 -366 46 -431 3 -30 10 -43 21 -43 12 0 14 8
10 43 -3 23 -13 114 -22 202 -25 246 -25 245 -41 245 -8 0 -14 -7 -14 -16z"/>
<path d="M14376 5090 c5 -51 31 -307 40 -388 3 -30 8 -51 11 -48 7 6 -35 411
-47 451 -7 25 -7 23 -4 -15z"/>
<path d="M14415 5095 c3 -22 11 -105 20 -185 21 -212 27 -261 32 -256 7 7 -38
439 -48 461 -7 14 -8 9 -4 -20z"/>
<path d="M14652 5095 c0 -22 3 -62 8 -90 6 -40 7 -43 8 -15 0 19 -3 60 -8 90
-6 48 -7 50 -8 15z"/>
<path d="M15002 5100 c0 -19 2 -27 5 -17 2 9 2 25 0 35 -3 9 -5 1 -5 -18z"/>
<path d="M16280 5106 c14 -13 27 -22 29 -20 7 6 -31 44 -43 44 -6 0 1 -11 14
-24z"/>
<path d="M14181 5109 c2 -49 37 -318 38 -294 1 38 -28 297 -34 303 -3 3 -5 -1
-4 -9z"/>
<path d="M14244 5093 c2 -16 7 -53 10 -83 17 -175 38 -357 42 -369 3 -10 8
-11 15 -4 6 6 5 56 -6 149 -9 76 -20 183 -26 237 -9 74 -15 97 -26 97 -11 0
-13 -8 -9 -27z"/>
<path d="M14862 5100 c0 -14 2 -19 5 -12 2 6 2 18 0 25 -3 6 -5 1 -5 -13z"/>
<path d="M14102 5085 c0 -16 3 -52 8 -80 6 -41 7 -44 8 -15 0 19 -3 55 -7 80
-6 33 -9 37 -9 15z"/>
<path d="M14130 5094 c0 -31 41 -438 46 -453 3 -8 7 -11 10 -9 6 7 -43 469
-51 476 -3 3 -5 -3 -5 -14z"/>
<path d="M14953 5065 c0 -22 2 -30 4 -17 2 12 2 30 0 40 -3 9 -5 -1 -4 -23z"/>
<path d="M16234 5065 c3 -22 8 -74 11 -115 7 -94 56 -488 95 -764 17 -115 30
-210 30 -212 0 -2 11 -4 25 -4 23 0 65 34 65 53 0 5 8 21 19 35 21 30 32 101
31 204 0 54 3 66 14 62 10 -4 15 7 18 43 5 52 -11 88 -41 98 -13 4 -16 13 -13
35 6 41 17 45 49 21 14 -12 28 -19 31 -17 6 7 -54 83 -110 139 -26 26 -48 54
-48 62 0 8 -4 15 -10 15 -5 0 -10 6 -10 14 0 7 -10 24 -23 37 -13 13 -24 37
-25 52 -1 15 -9 41 -17 58 -9 17 -13 39 -9 51 4 13 1 24 -7 29 -8 5 -9 9 -3 9
6 0 11 20 12 45 0 43 -1 45 -28 45 -19 0 -35 8 -45 23 -15 21 -16 21 -11 -18z
m203 -467 c-3 -8 -6 -5 -6 6 -1 11 2 17 5 13 3 -3 4 -12 1 -19z"/>
<path d="M15032 5065 c0 -16 2 -22 5 -12 2 9 2 23 0 30 -3 6 -5 -1 -5 -18z"/>
<path d="M15191 5080 c-1 -8 7 -87 16 -175 10 -88 19 -144 20 -125 3 34 -33
330 -36 300z"/>
<path d="M14893 5040 c0 -25 2 -35 4 -22 2 12 2 32 0 45 -2 12 -4 2 -4 -23z"/>
<path d="M15163 5040 c0 -25 2 -35 4 -22 2 12 2 32 0 45 -2 12 -4 2 -4 -23z"/>
<path d="M14542 5010 c0 -19 2 -27 5 -17 2 9 2 25 0 35 -3 9 -5 1 -5 -18z"/>
<path d="M15012 5015 c0 -16 2 -22 5 -12 2 9 2 23 0 30 -3 6 -5 -1 -5 -18z"/>
<path d="M14833 4990 c0 -25 2 -35 4 -22 2 12 2 32 0 45 -2 12 -4 2 -4 -23z"/>
<path d="M14963 4980 c0 -25 2 -35 4 -22 2 12 2 32 0 45 -2 12 -4 2 -4 -23z"/>
<path d="M15172 4960 c0 -19 3 -57 8 -85 6 -40 7 -43 8 -15 0 19 -3 58 -8 85
-6 40 -7 43 -8 15z"/>
<path d="M14812 4960 c0 -14 2 -19 5 -12 2 6 2 18 0 25 -3 6 -5 1 -5 -13z"/>
<path d="M14903 4945 c0 -22 2 -30 4 -17 2 12 2 30 0 40 -3 9 -5 -1 -4 -23z"/>
<path d="M14126 4860 c6 -102 21 -213 22 -160 0 19 -6 82 -13 140 l-14 105 5
-85z"/>
<path d="M14552 4910 c0 -19 3 -57 8 -85 6 -40 7 -43 8 -15 0 19 -3 58 -8 85
-6 40 -7 43 -8 15z"/>
<path d="M14671 4899 c0 -24 4 -64 9 -89 6 -33 7 -22 3 40 -6 91 -13 122 -12
49z"/>
<path d="M14842 4905 c0 -22 3 -62 8 -90 6 -40 7 -43 8 -15 0 19 -3 60 -8 90
-6 48 -7 50 -8 15z"/>
<path d="M15022 4915 c0 -16 2 -22 5 -12 2 9 2 23 0 30 -3 6 -5 -1 -5 -18z"/>
<path d="M14976 4850 c3 -47 9 -101 14 -120 7 -29 8 -25 4 20 -3 30 -9 84 -14
120 -8 62 -9 61 -4 -20z"/>
<path d="M14822 4885 c0 -16 2 -22 5 -12 2 9 2 23 0 30 -3 6 -5 -1 -5 -18z"/>
<path d="M15052 4885 c0 -16 2 -22 5 -12 2 9 2 23 0 30 -3 6 -5 -1 -5 -18z"/>
<path d="M14912 4865 c0 -22 3 -65 8 -95 6 -48 7 -50 8 -15 0 22 -3 65 -8 95
-6 48 -7 50 -8 15z"/>
<path d="M15033 4835 c0 -22 2 -30 4 -17 2 12 2 30 0 40 -3 9 -5 -1 -4 -23z"/>
<path d="M14892 4835 c0 -16 2 -22 5 -12 2 9 2 23 0 30 -3 6 -5 -1 -5 -18z"/>
<path d="M15191 4780 c0 -25 3 -51 8 -59 5 -8 7 5 4 35 -6 68 -11 77 -12 24z"/>
<path d="M16656 4718 c1 -58 -3 -96 -10 -100 -8 -6 -6 -11 4 -18 11 -7 12 -12
3 -18 -7 -4 -11 -26 -9 -55 1 -26 -1 -47 -6 -47 -4 0 -8 -18 -8 -40 0 -22 5
-40 10 -40 6 0 10 -11 10 -24 0 -14 5 -28 11 -31 6 -4 8 -14 4 -22 -3 -9 1
-23 10 -33 13 -15 22 -44 41 -147 4 -18 10 -33 15 -33 4 0 13 -16 20 -35 11
-29 18 -35 41 -35 16 0 31 7 37 19 8 14 22 18 70 19 54 1 58 -1 54 -19 -5 -18
0 -19 69 -19 42 0 100 -5 129 -10 30 -6 111 -11 182 -11 70 -1 139 -4 154 -8
34 -9 146 5 196 25 21 8 42 12 47 9 4 -3 84 -6 177 -8 106 -2 176 -8 191 -16
16 -8 27 -9 42 -1 14 7 20 7 20 0 0 -6 56 -10 160 -10 100 0 160 4 160 10 0 6
18 10 40 10 22 0 40 -4 40 -10 0 -6 47 -10 120 -10 100 0 120 -2 120 -15 0
-13 22 -15 139 -15 76 0 166 -3 200 -6 l61 -7 0 123 0 122 -132 -6 c-165 -8
-749 -26 -883 -27 -55 -1 -176 -5 -270 -10 -93 -5 -268 -14 -387 -19 -140 -6
-225 -13 -240 -21 -34 -19 -309 -27 -461 -14 -57 5 -80 12 -86 24 -7 15 -23
106 -36 206 -2 22 -7 54 -11 70 -9 43 -8 111 2 179 8 53 12 60 34 62 24 2 436
3 530 1 25 0 209 2 410 6 377 8 1083 16 1368 17 l162 0 0 46 c0 38 -3 45 -16
40 -9 -3 -19 -6 -22 -6 -4 0 0 -5 8 -10 10 -6 -194 -7 -577 -3 -464 5 -593 4
-593 -6 0 -7 -4 -9 -10 -6 -5 3 -10 2 -10 -3 0 -6 16 -10 36 -10 19 0 38 -3
42 -7 3 -3 -168 -5 -381 -3 -324 2 -389 5 -397 17 -6 11 -12 12 -22 4 -26 -21
-163 -30 -353 -22 -104 4 -194 8 -198 8 -4 1 -17 21 -28 46 -11 25 -21 45 -22
45 -1 0 -2 -42 -1 -92z m2287 -715 c-13 -2 -33 -2 -45 0 -13 2 -3 4 22 4 25 0
35 -2 23 -4z"/>
<path d="M14221 4744 c0 -21 4 -57 9 -79 6 -30 7 -21 3 35 -6 81 -13 107 -12
44z"/>
<path d="M14251 4764 c0 -11 3 -14 6 -6 3 7 2 16 -1 19 -3 4 -6 -2 -5 -13z"/>
<path d="M14573 4725 c0 -22 2 -30 4 -17 2 12 2 30 0 40 -3 9 -5 -1 -4 -23z"/>
<path d="M15042 4740 c0 -14 2 -19 5 -12 2 6 2 18 0 25 -3 6 -5 1 -5 -13z"/>
<path d="M14693 4715 c0 -22 2 -30 4 -17 2 12 2 30 0 40 -3 9 -5 -1 -4 -23z"/>
<path d="M14862 4720 c0 -19 2 -27 5 -17 2 9 2 25 0 35 -3 9 -5 1 -5 -18z"/>
<path d="M14841 4704 c0 -11 3 -14 6 -6 3 7 2 16 -1 19 -3 4 -6 -2 -5 -13z"/>
<path d="M9462 4651 c-20 -12 62 -19 147 -13 39 2 71 9 71 13 0 12 -201 11
-218 0z"/>
<path d="M9915 4650 c3 -5 15 -10 26 -10 10 0 19 5 19 10 0 6 -12 10 -26 10
-14 0 -23 -4 -19 -10z"/>
<path d="M9268 4643 c12 -2 32 -2 45 0 12 2 2 4 -23 4 -25 0 -35 -2 -22 -4z"/>
<path d="M9415 4640 c3 -5 10 -10 16 -10 5 0 9 5 9 10 0 6 -7 10 -16 10 -8 0
-12 -4 -9 -10z"/>
<path d="M14152 4620 c0 -19 2 -27 5 -17 2 9 2 25 0 35 -3 9 -5 1 -5 -18z"/>
<path d="M15341 4623 c0 -10 3 -13 6 -5 7 17 43 15 43 -3 0 -9 -9 -15 -22 -15
-15 0 -19 -3 -11 -8 8 -5 9 -13 3 -22 -7 -10 -10 -11 -10 -2 0 6 -8 12 -17 11
-11 0 -13 -3 -5 -6 6 -2 12 -11 12 -18 0 -11 6 -11 30 -2 30 12 40 27 18 27
-10 0 -10 3 0 9 23 14 10 46 -21 49 -21 3 -27 -1 -26 -15z"/>
<path d="M15113 4613 c9 -2 23 -2 30 0 6 3 -1 5 -18 5 -16 0 -22 -2 -12 -5z"/>
<path d="M15219 4613 c-6 -42 -7 -63 -1 -63 21 1 52 14 52 22 0 5 -9 6 -20 3
-11 -3 -20 -2 -20 3 0 6 14 9 31 8 32 -2 69 17 57 29 -4 4 -15 4 -25 0 -30
-13 -53 -15 -53 -5 0 12 -19 14 -21 3z"/>
<path d="M15140 4592 c0 -7 -10 -13 -22 -13 -19 -1 -20 -2 -4 -6 20 -5 44 12
33 24 -4 3 -7 1 -7 -5z"/>
<path d="M10020 4556 c0 -9 5 -16 10 -16 6 0 10 4 10 9 0 6 -4 13 -10 16 -5 3
-10 -1 -10 -9z"/>
<path d="M15290 4561 c0 -5 5 -13 10 -16 6 -3 10 -2 10 4 0 5 -4 13 -10 16 -5
3 -10 2 -10 -4z"/>
<path d="M15161 4543 c-12 -13 -12 -16 0 -24 12 -7 11 -9 -1 -9 -9 0 -22 6
-29 13 -12 10 -13 9 -7 -7 3 -10 2 -24 -4 -31 -8 -9 -8 -15 0 -20 5 -3 10 -1
10 4 0 6 9 11 20 11 11 0 20 4 20 10 0 5 6 7 14 4 8 -3 17 -1 21 5 3 6 17 8
31 5 14 -4 24 -2 24 5 0 6 9 11 21 11 11 0 18 4 15 9 -3 5 -16 7 -29 4 -18 -4
-19 -3 -7 7 13 10 13 11 0 7 -8 -2 -14 -10 -12 -17 2 -7 -3 -10 -12 -7 -9 4
-18 2 -21 -3 -12 -19 -34 -10 -37 14 -3 21 -5 22 -17 9z"/>
<path d="M15378 4530 c-7 -11 -22 -21 -33 -21 -17 -1 -17 -2 -2 -6 9 -2 17 -9
17 -14 0 -5 10 -9 23 -8 12 0 16 3 10 6 -7 2 -13 9 -13 15 0 6 7 8 15 4 10 -3
15 1 15 14 0 28 -17 34 -32 10z"/>
<path d="M10703 4510 c3 -39 17 -39 17 0 0 17 -4 30 -10 30 -5 0 -8 -13 -7
-30z"/>
<path d="M15285 4496 c18 -13 18 -14 -3 -20 -27 -9 -20 -26 7 -19 24 6 34 40
14 47 -27 11 -37 6 -18 -8z"/>
<path d="M15215 4480 c-3 -5 -1 -10 4 -10 6 0 11 5 11 10 0 6 -2 10 -4 10 -3
0 -8 -4 -11 -10z"/>
<path d="M15330 4473 c0 -5 5 -15 10 -23 8 -12 10 -11 10 8 0 12 -4 22 -10 22
-5 0 -10 -3 -10 -7z"/>
<path d="M15147 4445 c-4 -8 -2 -17 3 -20 15 -10 12 -23 -12 -45 -12 -11 -18
-23 -15 -27 4 -3 7 -1 7 5 0 7 4 12 10 12 5 0 21 12 36 26 15 16 19 24 10 21
-10 -4 -16 -2 -15 6 4 36 -13 52 -24 22z"/>
<path d="M15211 4444 c0 -11 3 -14 6 -6 3 7 2 16 -1 19 -3 4 -6 -2 -5 -13z"/>
<path d="M15240 4450 c0 -5 5 -10 11 -10 5 0 7 5 4 10 -3 6 -8 10 -11 10 -2 0
-4 -4 -4 -10z"/>
<path d="M15383 4440 c3 -11 1 -23 -4 -26 -15 -9 0 -24 24 -24 18 0 19 2 7 10
-12 8 -13 12 -2 19 11 7 10 9 -3 15 -9 3 -13 10 -10 16 3 5 1 10 -6 10 -6 0
-9 -8 -6 -20z"/>
<path d="M15262 4432 c-18 -3 -23 -9 -19 -23 3 -10 1 -19 -4 -19 -5 0 -9 -5
-9 -11 0 -8 4 -9 13 0 8 6 17 8 20 4 4 -3 7 -1 7 5 0 7 -4 12 -10 12 -5 0 -10
4 -10 8 0 13 34 11 42 -2 5 -7 8 -5 8 6 0 21 -8 25 -38 20z"/>
<path d="M15482 4420 c0 -14 2 -19 5 -12 2 6 2 18 0 25 -3 6 -5 1 -5 -13z"/>
<path d="M16590 4430 c0 -5 5 -10 10 -10 6 0 10 5 10 10 0 6 -4 10 -10 10 -5
0 -10 -4 -10 -10z"/>
<path d="M15431 4404 c0 -11 3 -14 6 -6 3 7 2 16 -1 19 -3 4 -6 -2 -5 -13z"/>
<path d="M15197 4395 c-14 -10 -15 -14 -3 -18 8 -3 17 1 20 10 9 22 4 24 -17
8z"/>
<path d="M15335 4400 c-3 -5 1 -10 10 -10 9 0 13 5 10 10 -3 6 -8 10 -10 10
-2 0 -7 -4 -10 -10z"/>
<path d="M15300 4379 c0 -5 5 -7 10 -4 6 3 10 8 10 11 0 2 -4 4 -10 4 -5 0
-10 -5 -10 -11z"/>
<path d="M14132 4350 c0 -14 2 -19 5 -12 2 6 2 18 0 25 -3 6 -5 1 -5 -13z"/>
<path d="M15170 4356 c0 -8 -10 -17 -22 -19 -20 -4 -19 -4 5 -6 15 0 27 1 27
3 0 2 3 11 6 20 3 9 1 16 -5 16 -6 0 -11 -6 -11 -14z"/>
<path d="M15256 4354 c-11 -8 -16 -14 -10 -14 13 0 39 18 34 24 -3 2 -14 -2
-24 -10z"/>
<path d="M15365 4360 c3 -5 11 -10 16 -10 6 0 7 5 4 10 -3 6 -11 10 -16 10 -6
0 -7 -4 -4 -10z"/>
<path d="M10240 4310 c0 -5 4 -10 9 -10 6 0 13 5 16 10 3 6 -1 10 -9 10 -9 0
-16 -4 -16 -10z"/>
<path d="M10345 4300 c-3 -5 -1 -10 4 -10 6 0 11 5 11 10 0 6 -2 10 -4 10 -3
0 -8 -4 -11 -10z"/>
<path d="M10425 4261 c4 -14 0 -21 -12 -24 -12 -3 -8 -5 10 -6 15 0 27 3 27 8
0 5 3 16 6 25 4 12 0 16 -16 16 -16 0 -20 -4 -15 -19z"/>
<path d="M10320 4260 c0 -5 14 -10 30 -10 17 0 30 5 30 10 0 6 -13 10 -30 10
-16 0 -30 -4 -30 -10z"/>
<path d="M10523 4233 c9 -2 23 -2 30 0 6 3 -1 5 -18 5 -16 0 -22 -2 -12 -5z"/>
<path d="M10415 4070 c3 -5 8 -10 11 -10 2 0 4 5 4 10 0 6 -5 10 -11 10 -5 0
-7 -4 -4 -10z"/>
<path d="M16569 4033 c-13 -34 -13 -43 2 -83 14 -38 17 -41 23 -23 4 13 13 20
21 17 7 -3 16 -1 19 4 8 13 -26 115 -40 119 -6 2 -17 -13 -25 -34z"/>
<path d="M15531 3994 c0 -11 3 -14 6 -6 3 7 2 16 -1 19 -3 4 -6 -2 -5 -13z"/>
<path d="M9352 3983 c2 -10 13 -19 26 -21 12 -2 27 -11 34 -20 7 -9 32 -27 56
-40 51 -28 182 -42 206 -23 26 22 7 41 -41 41 -24 0 -58 7 -75 16 -27 14 -121
47 -140 48 -3 1 -10 4 -14 9 -4 4 -18 7 -31 7 -18 0 -24 -5 -21 -17z"/>
<path d="M16665 3974 c-16 -25 -16 -30 -1 -76 14 -45 14 -52 0 -89 -15 -36
-15 -45 0 -104 9 -35 16 -82 16 -105 0 -95 31 -11 46 125 3 33 15 96 25 140
23 96 24 114 7 97 -15 -15 -28 -15 -28 -1 0 13 -25 39 -38 39 -5 0 -17 -12
-27 -26z"/>
<path d="M10430 3960 c0 -5 5 -10 10 -10 6 0 10 5 10 10 0 6 -4 10 -10 10 -5
0 -10 -4 -10 -10z"/>
<path d="M15481 3954 c0 -11 3 -14 6 -6 3 7 2 16 -1 19 -3 4 -6 -2 -5 -13z"/>
<path d="M10527 3833 c-12 -12 -7 -33 8 -33 17 0 19 9 7 28 -5 7 -11 9 -15 5z"/>
<path d="M15502 3760 c0 -14 2 -19 5 -12 2 6 2 18 0 25 -3 6 -5 1 -5 -13z"/>
<path d="M10670 3750 c0 -5 5 -10 10 -10 6 0 10 5 10 10 0 6 -4 10 -10 10 -5
0 -10 -4 -10 -10z"/>
<path d="M13876 3665 c10 -8 24 -14 29 -14 6 0 1 6 -9 14 -11 8 -24 15 -30 15
-5 0 -1 -7 10 -15z"/>
<path d="M16425 3626 c2 -32 9 -64 16 -70 13 -13 8 34 -10 94 -10 32 -10 30
-6 -24z"/>
<path d="M18845 3661 c11 -4 43 -5 70 -1 49 7 49 7 -20 8 -44 0 -62 -2 -50 -7z"/>
<path d="M19080 3660 l45 -7 -44 -1 c-24 -1 -42 -5 -38 -8 3 -3 41 -2 84 2
l78 8 -50 7 c-27 4 -66 7 -85 7 -32 -1 -31 -2 10 -8z"/>
<path d="M18745 3631 l110 -6 -135 -7 c-74 -4 -291 -10 -481 -12 -361 -6 -574
-20 -599 -40 -9 -8 -55 -13 -120 -15 -90 -1 -148 -11 -230 -38 -11 -4 -9 -7 8
-14 24 -9 22 -29 -3 -29 -7 0 -15 -5 -17 -12 -3 -7 -37 -14 -84 -18 -46 -4
-61 -8 -36 -8 74 -3 45 -19 -47 -26 -65 -5 -97 -4 -122 6 -26 11 -45 12 -82 3
-48 -10 -63 -27 -30 -33 10 -2 22 -8 27 -13 6 -5 27 -9 47 -9 20 0 42 -7 49
-15 9 -11 35 -15 104 -15 60 0 96 -4 104 -12 8 -8 53 -14 122 -16 96 -4 110
-2 110 12 0 12 10 16 40 16 23 0 40 -5 40 -11 0 -7 8 -18 18 -25 15 -12 14
-13 -10 -14 -26 0 -28 -3 -28 -40 0 -33 3 -40 19 -40 20 0 81 -54 81 -71 0 -5
18 -9 40 -9 l40 0 0 -40 0 -40 -40 0 c-38 0 -40 -2 -40 -30 0 -29 -1 -30 -50
-30 -32 0 -50 -4 -50 -12 0 -7 -12 -25 -27 -40 -25 -26 -32 -28 -110 -28 -76
0 -83 -2 -83 -20 0 -17 7 -20 40 -20 38 0 40 -2 40 -30 0 -28 2 -30 40 -30 30
0 40 4 40 16 0 14 3 14 15 4 11 -9 15 -34 15 -96 l0 -84 40 0 40 0 0 -44 c0
-44 -16 -69 -29 -47 -5 7 -12 3 -19 -14 -15 -32 -28 -32 -46 3 l-15 27 -1 -36
c0 -30 -9 -45 -46 -83 -26 -25 -55 -46 -65 -46 -15 0 -19 -8 -19 -40 0 -26 4
-40 13 -40 9 0 17 -30 25 -102 8 -66 18 -108 29 -120 15 -17 13 -18 -50 -18
l-67 0 0 -83 c0 -79 -1 -85 -30 -112 -16 -16 -30 -37 -30 -48 0 -10 -11 -28
-25 -39 -34 -27 -31 -38 10 -38 24 0 35 -5 35 -15 0 -8 -4 -15 -10 -15 -5 0
-10 -16 -10 -36 0 -27 -7 -41 -26 -56 -14 -11 -23 -26 -21 -33 11 -26 -11 -39
-62 -36 l-51 2 0 -100 0 -101 -37 -35 c-21 -19 -44 -35 -50 -35 -7 0 -13 -3
-13 -8 0 -4 -10 -12 -22 -17 -13 -6 -27 -20 -33 -33 -10 -23 -13 -23 -87 -17
l-78 7 0 -56 c0 -31 -4 -56 -10 -56 -5 0 -10 -18 -10 -40 0 -22 5 -40 10 -40
6 0 10 -18 10 -40 l0 -40 -40 0 c-31 0 -40 4 -40 17 0 14 -2 15 -12 4 -10 -11
-10 -14 0 -18 19 -7 14 -23 -13 -45 -28 -22 -32 -38 -10 -38 11 0 15 -11 15
-40 0 -22 -4 -40 -8 -40 -5 0 -16 -19 -26 -41 -14 -30 -21 -38 -27 -28 -8 12
-11 11 -19 -1 -16 -25 -11 -48 11 -55 25 -8 62 22 54 43 -3 8 2 29 11 47 l16
33 34 -38 c27 -30 34 -46 34 -79 0 -39 -2 -41 -30 -41 -16 0 -30 -4 -30 -10 0
-5 -7 -10 -15 -10 -13 0 -65 -44 -65 -55 0 -3 7 -5 16 -5 14 0 15 -2 3 -17
-11 -13 -15 -13 -17 -2 -3 14 -46 39 -69 39 -7 0 -13 9 -13 20 0 13 7 20 19
20 11 0 23 5 26 10 4 6 -18 10 -59 10 l-66 0 0 -50 c0 -27 5 -50 10 -50 6 0
10 5 10 10 0 6 18 10 39 10 31 0 46 -7 70 -31 17 -17 31 -32 31 -35 0 -17 -49
-54 -79 -59 -26 -4 -41 -14 -53 -35 -16 -27 -22 -30 -71 -30 -54 0 -87 -19
-87 -48 0 -7 -7 -12 -15 -12 -10 0 -15 -10 -15 -29 0 -22 6 -30 25 -35 14 -4
25 -13 25 -21 0 -8 14 -25 30 -37 28 -20 29 -23 13 -30 -11 -5 4 -7 35 -5 48
4 55 1 87 -29 20 -18 33 -39 30 -46 -8 -21 -91 -58 -130 -58 -19 0 -35 -4 -35
-10 0 -7 487 -10 1440 -10 l1440 0 0 1815 0 1814 -120 -3 c-66 -2 -120 0 -120
5 0 5 -73 8 -162 7 -159 -2 -160 -2 -53 -7z m-1015 -490 c0 -102 -12 -181 -26
-181 -11 0 -14 26 -14 120 0 113 1 120 20 120 18 0 20 -7 20 -59z m-420 -1465
c0 -2 -7 -9 -15 -16 -12 -10 -15 -10 -15 4 0 9 7 16 15 16 8 0 15 -2 15 -4z
m-510 -621 c0 -11 -11 -15 -40 -15 -29 0 -40 4 -40 15 0 11 11 15 40 15 29 0
40 -4 40 -15z m20 -80 c10 -12 10 -15 -4 -15 -9 0 -16 7 -16 15 0 8 2 15 4 15
2 0 9 -7 16 -15z m-420 -726 c0 -21 -5 -24 -47 -34 -26 -5 -33 -3 -33 9 0 9 4
16 9 16 5 0 14 14 21 30 12 29 14 30 31 14 11 -10 19 -25 19 -35z m260 -129
c0 -22 -4 -40 -10 -40 -5 0 -10 18 -10 40 0 22 5 40 10 40 6 0 10 -18 10 -40z"/>
<path d="M15505 3573 c-22 -3 -44 -9 -50 -15 -7 -7 2 -9 30 -4 22 3 50 6 63 6
12 0 22 5 22 10 0 6 -6 9 -12 8 -7 -1 -31 -3 -53 -5z"/>
<path d="M15015 3534 c-165 -12 -325 -26 -355 -30 -49 -6 -52 -8 -25 -14 17
-3 65 -6 108 -6 42 1 77 -2 77 -5 0 -6 27 -2 108 16 21 5 42 3 56 -4 17 -9 37
-10 77 -3 30 6 56 8 58 6 10 -10 -13 -18 -67 -22 -31 -2 -61 -10 -67 -17 -5
-6 -46 -15 -90 -19 -44 -4 -96 -11 -115 -16 -38 -10 277 -5 410 6 72 6 79 9
104 41 15 18 25 39 23 46 -3 7 -6 4 -6 -5 -1 -20 1 -20 -93 -21 -70 -2 -96 13
-43 24 53 12 105 10 106 -3 0 -7 4 -4 8 6 4 11 23 25 42 32 45 16 48 17 -316
-12z"/>
<path d="M16349 3556 c-2 -2 -53 -7 -114 -11 -60 -3 -126 -8 -145 -11 -19 -2
-66 -4 -105 -4 -38 1 -101 -5 -140 -13 -64 -14 -131 -15 -162 -3 -7 3 -10 -1
-6 -10 4 -11 -4 -14 -33 -15 -22 0 -57 -1 -79 -2 -22 -1 -43 2 -47 8 -5 6 -8
3 -8 -7 0 -10 -4 -18 -10 -18 -5 0 -10 5 -10 11 0 8 -4 9 -13 0 -16 -13 -27
-5 -27 21 0 10 -7 18 -15 18 -8 0 -15 -4 -15 -10 0 -5 -8 -10 -19 -10 -10 0
-24 -7 -31 -15 -11 -13 -15 -13 -21 -3 -7 10 -9 10 -9 -1 0 -8 -8 -20 -17 -28
-18 -14 20 -14 192 2 77 7 470 32 685 44 74 4 143 4 153 -1 26 -13 56 11 46
37 -4 11 -8 14 -8 8 -1 -18 -21 -16 -21 2 0 14 -12 20 -21 11z"/>
<path d="M11858 3473 c6 -2 18 -2 25 0 6 3 1 5 -13 5 -14 0 -19 -2 -12 -5z"/>
<path d="M14778 3463 c7 -3 16 -2 19 1 4 3 -2 6 -13 5 -11 0 -14 -3 -6 -6z"/>
<path d="M16680 3400 c-6 -11 -9 -26 -7 -33 3 -7 10 1 16 17 14 35 7 47 -9 16z"/>
<path d="M14540 3400 c-23 -7 -23 -8 -3 -9 12 -1 25 4 28 9 3 6 5 10 3 9 -2
-1 -14 -5 -28 -9z"/>
<path d="M16711 3374 c0 -11 3 -14 6 -6 3 7 2 16 -1 19 -3 4 -6 -2 -5 -13z"/>
<path d="M15160 3280 c0 -4 -13 -6 -29 -5 -27 2 -35 -4 -46 -35 -9 -26 -19
-39 -36 -43 -10 -3 -17 -1 -13 4 3 5 -16 9 -41 9 -25 0 -44 -4 -41 -9 3 -5 15
-7 25 -4 11 3 28 -4 40 -16 l22 -22 39 22 c24 14 40 30 40 41 0 14 8 18 35 18
29 0 35 4 35 21 0 11 4 18 8 15 5 -3 22 -1 38 3 25 7 21 8 -23 8 -29 1 -53 -3
-53 -7z"/>
<path d="M14904 3215 c-10 -8 -14 -14 -9 -14 6 0 19 6 29 14 11 8 15 15 10 15
-6 0 -19 -7 -30 -15z"/>
<path d="M9756 3205 c-4 -10 2 -19 17 -24 63 -24 120 -41 137 -41 25 0 109
-20 136 -32 12 -6 48 -10 82 -11 101 -3 132 52 49 86 -33 14 -257 37 -358 37
-42 0 -58 -4 -63 -15z"/>
<path d="M15138 3193 c7 -3 16 -2 19 1 4 3 -2 6 -13 5 -11 0 -14 -3 -6 -6z"/>
<path d="M14847 3173 c-4 -3 -7 -11 -7 -17 0 -6 5 -5 12 2 6 6 9 14 7 17 -3 3
-9 2 -12 -2z"/>
<path d="M10920 2480 c-9 -6 -10 -10 -3 -10 6 0 15 5 18 10 8 12 4 12 -15 0z"/>
<path d="M17260 2360 c0 -22 5 -40 10 -40 6 0 10 18 10 40 0 22 -4 40 -10 40
-5 0 -10 -18 -10 -40z"/>
<path d="M17283 2200 c0 -25 2 -35 4 -22 2 12 2 32 0 45 -2 12 -4 2 -4 -23z"/>
<path d="M17100 1770 c0 -5 5 -10 10 -10 6 0 10 5 10 10 0 6 -4 10 -10 10 -5
0 -10 -4 -10 -10z"/>
<path d="M16590 1080 c0 -22 5 -40 10 -40 6 0 10 18 10 40 0 22 -4 40 -10 40
-5 0 -10 -18 -10 -40z"/>
<path d="M7280 1030 c0 -5 4 -10 9 -10 6 0 13 5 16 10 3 6 -1 10 -9 10 -9 0
-16 -4 -16 -10z"/>
<path d="M16320 410 c0 -5 18 -10 40 -10 22 0 40 5 40 10 0 6 -18 10 -40 10
-22 0 -40 -4 -40 -10z"/>
<path d="M3120 225 c0 -27 1 -28 23 -19 18 7 10 44 -9 44 -8 0 -14 -10 -14
-25z"/>
<path d="M2800 10 c0 -5 23 -10 50 -10 28 0 50 5 50 10 0 6 -22 10 -50 10 -27
0 -50 -4 -50 -10z"/>
<path d="M16065 10 c-3 -5 -1 -10 4 -10 6 0 11 5 11 10 0 6 -2 10 -4 10 -3 0
-8 -4 -11 -10z"/>
</g>
</svg>
