<?xml version="1.0" standalone="no"?>
<!DOCTYPE svg PUBLIC "-//W3C//DTD SVG 20010904//EN"
 "http://www.w3.org/TR/2001/REC-SVG-20010904/DTD/svg10.dtd">
<svg version="1.0" xmlns="http://www.w3.org/2000/svg"
 width="700.000000pt" height="450.000000pt" viewBox="0 0 700.000000 450.000000"
 preserveAspectRatio="xMidYMid meet">

<g transform="translate(0.000000,450.000000) scale(0.100000,-0.100000)"
fill="#000000" stroke="none">
<path d="M3745 4274 c-11 -3 -29 -7 -41 -9 -11 -3 -37 -18 -57 -33 -20 -16
-55 -32 -77 -36 -110 -17 -236 -126 -305 -264 -22 -44 -27 -70 -32 -169 -3
-70 -1 -148 6 -191 6 -40 14 -103 17 -140 3 -37 7 -69 9 -72 2 -3 0 -12 -6
-20 -6 -10 -9 -11 -9 -2 0 6 -7 12 -15 12 -8 0 -16 -6 -16 -12 -5 -45 2 -109
14 -144 10 -25 12 -46 6 -55 -15 -24 -10 -34 7 -13 8 10 12 13 8 5 -4 -8 -9
-55 -10 -104 -2 -49 -9 -95 -15 -103 -10 -12 -9 -13 5 -8 26 10 19 -6 -30 -62
-38 -46 -93 -132 -94 -149 0 -3 0 -9 0 -13 0 -11 1 -11 -150 -22 -106 -8 -195
-21 -248 -36 -20 -6 -119 -166 -135 -219 -8 -27 -27 -129 -42 -225 -15 -96
-34 -204 -41 -239 -13 -62 -13 -65 21 -160 18 -53 47 -131 64 -174 40 -102 40
-153 -3 -287 -18 -58 -42 -153 -52 -213 l-18 -107 -46 52 c-57 64 -125 175
-156 253 l-24 60 4 -65 c2 -36 13 -105 26 -155 12 -49 23 -99 25 -110 6 -34
36 -109 50 -125 7 -8 26 -42 43 -76 46 -91 77 -122 164 -165 72 -34 84 -37
144 -33 36 2 72 7 79 11 8 5 45 38 83 74 105 101 110 103 282 95 80 -3 197 -9
260 -12 l115 -7 1 -81 c1 -46 13 -130 28 -195 14 -62 26 -118 26 -124 0 -22
-151 3 -316 54 -93 29 -201 61 -240 71 l-72 19 -66 -42 c-38 -23 -95 -49 -137
-59 -39 -10 -73 -21 -76 -24 -11 -10 7 -38 28 -43 18 -5 20 -11 13 -42 -4 -20
-8 -56 -10 -81 -1 -25 -19 -92 -38 -149 -20 -58 -36 -106 -36 -108 0 -2 444
-3 986 -3 935 0 986 1 979 18 -21 47 -65 175 -65 187 0 9 21 18 60 26 76 15
87 27 73 82 -7 23 -9 45 -5 49 4 3 36 18 72 33 103 43 132 80 130 168 -1 29 2
64 5 79 5 19 1 32 -15 48 -20 20 -21 26 -11 65 6 24 11 56 11 71 0 15 12 82
27 148 23 105 31 126 61 160 l35 39 -7 116 c-5 64 -8 125 -7 136 8 307 15 423
27 447 8 15 14 51 14 80 0 29 7 78 15 108 19 72 19 144 -1 186 -27 56 -133
136 -227 172 -45 17 -106 36 -134 42 -29 7 -68 22 -87 35 -19 13 -37 21 -39
18 -3 -2 -10 12 -17 31 -6 20 -16 36 -21 36 -5 0 -9 5 -9 11 0 6 -12 27 -27
46 -26 34 -28 42 -26 125 1 49 7 105 14 125 9 27 10 92 6 233 -6 205 -19 294
-61 414 -23 66 -25 67 -28 35 -2 -19 -5 7 -5 56 -2 108 -24 217 -58 289 -14
29 -25 58 -25 63 0 6 -31 40 -68 77 -109 106 -269 195 -377 210 -27 4 -59 9
-70 11 -11 2 -29 1 -40 -1z m495 -255 c15 -28 5 -23 -15 7 -9 15 -12 23 -6 20
6 -4 16 -16 21 -27z m-635 -64 c11 -2 22 -4 25 -5 3 -1 9 -2 13 -1 20 4 93
-23 136 -50 27 -16 56 -29 65 -29 25 0 141 -77 177 -117 17 -20 38 -51 45 -70
8 -18 35 -68 60 -110 81 -137 95 -171 101 -244 4 -49 11 -73 24 -85 23 -20 24
-34 5 -34 -26 0 -43 -28 -50 -79 -10 -77 -31 -127 -93 -219 -32 -46 -58 -90
-59 -96 -1 -6 -9 -29 -19 -51 -10 -22 -19 -49 -20 -60 -2 -11 -6 -30 -9 -42
-30 -110 -47 -207 -41 -233 3 -15 1 -40 -6 -56 -6 -16 -12 -44 -13 -62 l-1
-34 18 23 c17 21 18 21 32 3 8 -10 12 -25 10 -33 -3 -7 -11 -34 -17 -60 -17
-70 -158 -347 -302 -596 -26 -44 -54 -106 -63 -138 -15 -51 -18 -57 -29 -42
-7 9 -17 14 -23 10 -8 -4 -11 25 -11 92 0 139 -9 379 -20 583 -6 96 -9 184 -6
195 2 11 5 32 5 46 1 20 8 28 26 33 29 7 24 26 -6 26 -17 0 -19 5 -13 43 9 66
13 75 25 54 6 -9 8 -26 4 -36 -3 -11 -1 -23 6 -27 7 -4 10 -2 7 7 -3 8 2 19
11 25 13 10 13 23 3 101 -7 50 -12 120 -12 156 0 64 -1 67 -35 93 -50 38 -140
164 -165 232 -33 88 -40 149 -41 392 -1 251 9 335 49 390 35 49 69 80 87 80 8
0 22 8 31 19 15 17 23 18 89 6z m779 -480 l6 -40 -13 41 c-8 23 -18 47 -22 55
-6 10 -4 10 8 -1 8 -8 18 -33 21 -55z m-1104 -214 c0 -5 3 -18 7 -28 3 -10 2
-14 -2 -10 -5 4 -14 -3 -21 -15 l-12 -23 -7 27 c-4 16 -5 35 -1 43 6 16 36 21
36 6z m220 -2896 c0 -19 -4 -35 -10 -35 -5 0 -10 16 -10 35 0 19 5 35 10 35 6
0 10 -16 10 -35z m-210 -70 c0 -8 -2 -15 -4 -15 -2 0 -6 7 -10 15 -3 8 -1 15
4 15 6 0 10 -7 10 -15z m-44 -176 c3 -5 1 -9 -5 -9 -17 0 -41 12 -41 20 0 10
38 1 46 -11z m344 6 c18 -21 5 -47 -22 -43 -26 3 -37 36 -16 49 18 12 24 11
38 -6z m-197 -22 c-24 -5 -31 -27 -11 -39 6 -4 17 1 25 11 7 11 13 14 13 8 0
-17 -26 -34 -44 -27 -9 3 -16 17 -16 30 0 20 5 24 28 23 23 -2 24 -2 5 -6z"/>
<path d="M3980 3616 c0 -2 7 -7 16 -10 8 -3 12 -2 9 4 -6 10 -25 14 -25 6z"/>
<path d="M3414 3560 c-39 -15 -33 -25 15 -27 40 -1 47 2 48 18 2 21 -25 25
-63 9z"/>
<path d="M3490 3552 c0 -6 9 -12 20 -15 11 -3 20 -3 20 -1 0 2 -9 8 -20 14
-11 6 -20 7 -20 2z"/>
<path d="M3892 3484 c-31 -13 -47 -32 -17 -20 9 3 15 0 15 -8 0 -7 6 -18 13
-24 18 -14 57 4 57 27 0 18 2 19 31 4 21 -10 34 -12 41 -5 25 25 -90 47 -140
26z"/>
<path d="M3448 3438 c-21 -5 -38 -14 -38 -19 0 -12 39 -31 53 -25 8 3 8 5 -2
5 -11 1 -11 4 -1 16 17 20 27 19 35 -5 4 -12 15 -20 29 -20 27 0 54 26 40 40
-15 15 -77 19 -116 8z"/>
<path d="M3925 3040 c-3 -6 1 -7 9 -4 18 7 21 14 7 14 -6 0 -13 -4 -16 -10z"/>
<path d="M3620 2991 c8 -5 26 -12 40 -15 l25 -7 -25 15 c-14 9 -32 15 -40 15
-13 0 -13 -1 0 -8z"/>
<path d="M3755 2970 c-13 -5 -14 -9 -5 -9 8 0 24 4 35 9 13 5 14 9 5 9 -8 0
-24 -4 -35 -9z"/>
<path d="M3557 124 c-14 -14 -7 -35 11 -32 9 2 17 10 17 17 0 16 -18 25 -28
15z"/>
</g>
</svg>
