<?xml version="1.0" standalone="no"?>
<!DOCTYPE svg PUBLIC "-//W3C//DTD SVG 20010904//EN"
 "http://www.w3.org/TR/2001/REC-SVG-20010904/DTD/svg10.dtd">
<svg version="1.0" xmlns="http://www.w3.org/2000/svg"
 width="612.000000pt" height="408.000000pt" viewBox="0 0 612.000000 408.000000"
 preserveAspectRatio="xMidYMid meet">

<g transform="translate(0.000000,408.000000) scale(0.100000,-0.100000)"
fill="#000000" stroke="none">
<path d="M0 2214 l0 -1867 463 7 c254 4 472 7 485 7 16 -1 21 3 16 12 -5 8 -2
7 9 -2 10 -8 20 -12 22 -9 8 8 18 73 11 66 -15 -13 -66 13 -66 34 0 11 5 18
13 15 8 -2 16 16 23 56 10 56 10 62 -12 95 -29 43 -30 52 -3 80 11 12 17 27
14 32 -9 15 -25 12 -25 -5 0 -8 -4 -15 -10 -15 -5 0 -10 6 -10 13 0 20 -30 78
-58 112 -18 21 -21 30 -11 34 7 2 15 -1 17 -8 2 -7 14 -4 33 10 22 16 27 24
19 34 -6 7 -8 20 -4 29 7 18 -12 21 -36 6 -13 -8 -13 -13 -2 -31 12 -19 12
-21 -2 -16 -9 4 -16 1 -16 -5 0 -6 -2 -9 -5 -6 -10 10 8 68 21 68 8 0 14 5 14
10 0 6 -4 10 -9 10 -5 0 -14 13 -19 29 -9 26 -8 29 25 45 30 14 34 20 29 41
-6 23 -4 25 29 25 19 0 35 5 35 10 0 6 -9 10 -20 10 -34 0 -53 77 -23 88 7 2
13 -4 13 -13 0 -14 8 -16 40 -13 26 2 40 -1 40 -8 0 -20 38 -4 45 19 6 18 8
19 12 5 5 -18 33 -33 33 -18 0 6 6 10 14 10 9 0 16 18 21 57 4 31 11 66 16 77
17 40 -2 -158 -27 -269 -33 -149 -45 -253 -43 -360 1 -131 1 -131 -26 -161
-14 -15 -25 -34 -25 -44 0 -9 -11 -27 -25 -40 -22 -20 -23 -25 -10 -32 17 -10
20 -44 5 -53 -5 -3 -10 -15 -10 -26 0 -11 -7 -19 -17 -19 -17 -1 -17 -1 -1
-14 24 -18 23 -36 -2 -36 -11 0 -20 7 -20 15 0 12 -67 14 -490 15 l-490 0 0
-160 0 -160 958 0 c956 0 958 0 958 20 0 17 -5 20 -26 15 -24 -5 -26 -3 -27
30 -1 20 -7 43 -14 51 -10 13 -10 17 1 24 11 7 12 17 4 47 -11 42 -10 96 5
223 5 47 10 86 10 87 2 5 67 23 82 23 13 0 19 -7 19 -24 0 -14 5 -28 10 -31 6
-3 10 -28 10 -54 0 -26 3 -51 7 -54 9 -10 33 13 33 32 0 9 7 29 15 45 8 15 15
37 15 47 0 26 40 34 82 16 l36 -15 -4 -64 c-9 -147 -6 -261 8 -269 10 -7 9 -9
-4 -9 -13 0 -15 -8 -12 -41 4 -34 1 -44 -15 -56 -12 -8 -21 -21 -21 -29 0 -12
80 -14 569 -14 446 0 570 3 574 13 4 9 6 9 6 0 1 -10 299 -13 1421 -13 l1420
0 0 2040 0 2040 -3060 0 -3060 0 0 -1866z m2311 1740 l5 -69 2 63 c2 57 12 77
27 52 3 -5 6 -45 7 -87 0 -71 1 -75 12 -46 21 59 32 58 33 -4 1 -49 -3 -63
-26 -93 l-28 -35 16 -77 c10 -50 12 -81 6 -87 -6 -6 -28 -13 -51 -17 -37 -5
-42 -4 -47 17 -4 13 -7 47 -7 74 0 32 -8 65 -21 90 -16 30 -23 64 -27 133 -5
100 8 124 25 45 l10 -48 2 73 c1 78 17 98 24 30 3 -40 4 -40 5 10 3 80 26 63
33 -24z m-876 -101 c-15 -37 -16 -51 -7 -84 l9 -34 7 47 c4 26 12 50 18 54 7
4 7 -1 2 -17 -9 -28 -9 -61 0 -86 6 -15 8 -15 16 -3 13 21 19 10 26 -54 5 -42
4 -60 -6 -66 -14 -9 -23 -117 -9 -125 13 -8 11 -45 -2 -45 -5 0 -8 -4 -4 -9 3
-6 -3 -14 -12 -20 -10 -6 -14 -11 -9 -11 5 0 2 -7 -5 -16 -13 -15 -11 -17 20
-12 33 5 33 4 28 -29 -3 -18 -3 -32 1 -29 4 2 6 -21 5 -52 -1 -52 -3 -57 -25
-59 -14 -1 -17 0 -5 3 22 7 22 16 -3 32 -17 10 -20 10 -20 -3 0 -8 -6 -15 -12
-15 -9 0 -8 -4 2 -10 12 -7 12 -10 1 -10 -7 0 -11 -6 -7 -15 3 -8 -2 -19 -12
-24 -14 -9 -11 -10 16 -11 17 0 32 -4 32 -10 0 -5 -5 -10 -11 -10 -5 0 -7 -4
-4 -10 4 -6 -6 -10 -21 -10 -27 0 -27 -1 -8 -15 17 -13 17 -14 2 -15 -10 0
-18 -7 -18 -15 0 -8 -5 -15 -11 -15 -5 0 -7 -5 -4 -10 4 -6 1 -17 -5 -25 -6
-8 -9 -18 -6 -24 9 -14 -4 -41 -20 -41 -9 0 -14 11 -14 30 0 23 -4 28 -16 23
-13 -5 -15 -2 -10 14 4 11 11 76 16 144 5 68 18 154 29 190 10 37 22 104 26
151 7 84 7 85 -22 119 -29 35 -47 67 -58 107 -9 31 11 28 30 -5 l16 -28 -4 45
c-5 55 4 102 20 107 8 3 11 -5 8 -26 -2 -17 0 -43 5 -58 7 -24 8 -20 9 24 1
57 8 83 23 83 6 0 7 -8 3 -17z m2965 -24 c0 -7 8 -17 17 -24 28 -20 24 -153
-7 -230 -28 -73 -28 -135 0 -236 35 -127 25 -167 -41 -161 -25 3 -39 0 -39 -7
0 -7 -10 -2 -22 9 -20 19 -23 31 -24 123 -1 102 -16 184 -40 222 -10 16 -34
124 -34 158 0 21 32 3 41 -23 6 -16 14 -30 18 -30 16 0 61 138 61 186 0 2 7 4
15 4 9 0 15 -10 16 -22 1 -21 2 -21 6 -3 8 36 12 45 23 45 5 0 10 -5 10 -11z
m-2592 -87 c2 -7 -3 -12 -12 -12 -9 0 -16 7 -16 16 0 17 22 14 28 -4z m42 -28
c0 -21 -4 -33 -10 -29 -5 3 -10 19 -10 36 0 16 5 29 10 29 6 0 10 -16 10 -36z
m-84 -16 c3 -24 1 -29 -6 -18 -11 16 -14 67 -4 57 4 -3 8 -21 10 -39z m-36
-36 c0 -21 -2 -24 -10 -12 -13 20 -13 53 0 45 6 -3 10 -18 10 -33z m117 -27
c-7 -40 8 -47 24 -12 11 25 49 54 49 38 0 -6 -6 -14 -13 -18 -14 -8 -47 -73
-47 -91 0 -6 -16 -24 -36 -40 -31 -26 -35 -34 -29 -60 3 -17 8 -50 10 -74 3
-24 9 -77 14 -118 14 -112 16 -189 5 -200 -7 -7 -19 -4 -37 10 -35 28 -43 96
-28 269 11 130 11 140 -9 185 -23 55 -27 108 -7 100 17 -6 87 23 87 36 0 6 5
10 11 10 8 0 10 -12 6 -35z m3349 -147 l-6 -63 21 40 c35 67 49 86 59 80 6 -4
4 -18 -5 -35 -21 -40 -18 -61 3 -27 17 27 32 35 32 17 0 -6 -11 -33 -25 -60
-28 -54 -20 -62 25 -28 44 32 51 11 8 -25 -20 -18 -50 -54 -66 -82 -26 -43
-31 -64 -37 -151 -4 -61 -3 -104 2 -107 6 -4 5 -31 -3 -69 -8 -35 -14 -74 -14
-87 0 -26 -16 -83 -31 -113 -5 -10 -9 -23 -9 -29 0 -6 -9 -22 -20 -36 -11 -14
-20 -32 -20 -40 0 -8 -10 -33 -21 -56 -60 -119 -57 -98 -49 -288 6 -131 12
-183 24 -207 9 -17 16 -39 16 -48 0 -10 11 -45 24 -78 40 -99 42 -116 17 -123
-15 -4 -21 -13 -21 -32 0 -14 -4 -21 -8 -15 -4 6 -17 14 -29 18 -13 4 -23 12
-23 17 0 5 -7 9 -15 9 -8 0 -15 -8 -15 -19 0 -13 -17 -26 -57 -43 l-57 -25
-103 -568 c-56 -313 -106 -572 -111 -577 -4 -4 -55 3 -112 17 -58 13 -352 80
-655 149 -302 69 -577 133 -610 141 -33 8 -186 44 -340 80 -440 101 -718 168
-1170 282 -231 58 -432 106 -447 106 -16 0 -28 4 -28 9 0 5 -10 6 -21 3 -15
-5 -19 -4 -15 4 4 6 1 11 -8 11 -8 0 -18 -5 -21 -10 -3 -5 -13 -10 -22 -10
-19 0 -63 45 -63 65 0 8 -5 17 -11 21 -15 9 -4 72 17 95 15 17 15 24 -6 111
-12 51 -24 128 -26 171 -2 43 -8 86 -13 96 -6 10 -10 52 -10 93 0 84 -28 208
-66 295 -39 87 -34 131 24 234 75 131 77 193 10 232 -22 12 -29 22 -25 34 4 9
1 20 -6 24 -7 4 -9 11 -5 15 3 4 13 2 20 -4 8 -7 17 -9 21 -5 3 4 13 -2 21
-13 13 -18 14 -18 8 5 -6 22 -4 23 26 19 17 -3 34 -1 37 4 3 4 16 8 29 8 14 0
25 7 28 18 4 12 5 11 6 -6 0 -12 -5 -25 -12 -28 -8 -3 -13 -20 -13 -44 1 -40
-7 -51 -18 -27 -5 10 -7 10 -12 0 -3 -7 -14 -13 -25 -13 -10 0 -19 -2 -19 -4
0 -18 17 -39 41 -52 16 -8 28 -20 26 -27 -1 -9 15 -11 57 -9 62 3 76 -5 76
-41 0 -15 -5 -18 -30 -13 -16 3 -45 8 -62 11 l-33 6 25 -15 c14 -9 32 -15 41
-16 9 0 19 -7 23 -15 3 -8 12 -15 20 -15 8 0 27 -5 41 -12 24 -11 25 -15 19
-55 -6 -38 -3 -46 18 -63 39 -30 47 -111 12 -124 -19 -7 -74 26 -74 45 0 25
-30 32 -51 13 -15 -14 -17 -28 -14 -87 3 -38 6 -119 7 -179 1 -60 5 -111 9
-114 19 -12 -9 -219 -32 -234 -4 -3 -11 -26 -15 -50 -4 -25 -4 -43 -2 -40 9 8
140 395 239 705 49 154 91 285 93 291 3 8 34 6 104 -9 56 -11 111 -17 124 -14
26 7 83 55 91 77 4 10 6 8 6 -6 1 -13 -10 -29 -27 -40 -47 -31 -56 -43 -36
-51 10 -4 22 0 29 10 16 22 28 22 21 -1 -6 -18 17 -24 356 -94 40 -8 48 -13
48 -31 0 -12 9 -28 20 -35 15 -9 20 -9 20 0 0 6 3 8 6 5 4 -4 19 2 33 12 26
19 29 19 176 -10 174 -33 175 -34 149 -15 -41 31 -3 25 95 -15 56 -22 107 -39
113 -37 6 2 -11 12 -38 22 -85 32 -174 77 -174 88 0 15 31 6 154 -46 60 -26
114 -45 118 -44 5 2 -42 25 -105 51 -120 50 -157 71 -145 83 4 4 67 -18 140
-49 105 -43 134 -59 136 -76 2 -12 10 -21 19 -21 12 0 11 -6 -6 -36 -23 -39
-25 -44 -13 -44 5 0 16 18 25 40 9 23 22 40 31 40 19 0 21 -21 4 -38 -9 -9 -8
-12 5 -12 9 0 17 7 17 15 0 9 10 15 26 15 19 0 25 -4 21 -15 -8 -18 9 -29 31
-20 16 7 36 9 78 6 13 -1 15 -8 10 -38 -6 -34 -5 -36 8 -20 8 10 12 27 9 37
-3 12 0 20 6 20 7 0 9 5 6 10 -3 6 -2 10 2 10 12 0 33 -37 26 -44 -3 -3 -13 0
-22 6 -14 11 -14 10 -1 -5 10 -10 69 -28 165 -47 83 -17 189 -40 237 -51 99
-22 132 -24 108 -9 -29 18 8 33 92 38 l83 4 29 -51 c33 -56 11 -48 241 -91 61
-12 143 -28 184 -36 69 -13 75 -13 87 3 9 14 9 20 1 25 -9 6 -9 8 0 8 15 0 -2
56 -25 83 -9 10 -18 43 -20 76 l-4 58 54 36 c74 48 83 50 79 10 -3 -37 -4 -37
37 -22 l31 11 -19 51 c-23 60 -25 87 -7 87 6 0 -5 16 -25 35 -40 36 -44 53
-32 128 6 33 10 37 35 37 25 0 28 3 27 27 -2 15 -10 28 -20 31 -25 6 -22 14
15 40 34 23 95 30 113 13 5 -6 20 -11 34 -13 42 -6 50 -17 50 -65 l0 -46 -27
24 c-21 19 -25 20 -20 6 4 -10 7 -34 7 -53 0 -21 4 -33 10 -29 6 3 10 2 10 -4
0 -5 -6 -14 -12 -18 -19 -12 -40 -52 -33 -63 3 -6 0 -8 -7 -5 -7 2 -22 -7 -32
-22 -17 -23 -17 -26 -3 -20 15 5 17 1 13 -26 -2 -17 -7 -40 -11 -49 -4 -10 -4
-18 0 -18 11 0 30 24 55 71 16 31 41 58 73 79 27 18 57 46 66 62 9 16 37 62
62 101 62 99 63 100 75 192 4 28 12 57 19 65 8 8 19 53 25 98 11 72 10 91 -3
135 -21 68 -37 151 -30 157 7 7 43 -40 43 -56 0 -8 7 -14 15 -14 12 0 35 54
35 83 0 15 29 77 36 77 4 0 4 -28 0 -62z m-1580 -12 c3 -8 12 -12 20 -9 11 4
14 -6 13 -51 -2 -69 8 -84 17 -28 4 23 11 39 16 36 13 -8 -1 -122 -21 -169
-11 -25 -15 -49 -10 -65 15 -54 6 -65 -65 -74 -5 -1 -11 -7 -14 -15 -3 -8 0
-11 6 -7 13 8 26 -29 16 -46 -6 -10 -4 -10 8 0 9 7 14 22 11 35 -4 21 -4 21
10 -2 10 -18 16 -20 20 -10 2 8 5 -1 4 -19 0 -19 6 -37 12 -42 10 -5 7 -12
-10 -24 -40 -28 -56 -21 -64 27 -4 23 -12 50 -17 61 -7 13 -6 26 2 42 13 24 8
107 -9 128 -4 6 -16 34 -26 61 -10 28 -23 56 -28 63 -7 8 -4 12 10 12 11 0 25
-10 31 -22 9 -19 11 -11 11 45 1 74 18 92 24 25 3 -41 4 -41 5 10 2 49 16 69
28 38z m-626 -286 c11 -11 20 -29 20 -40 0 -17 -7 -20 -40 -20 -22 0 -40 -4
-40 -9 0 -5 -3 -16 -6 -25 -5 -13 1 -16 33 -16 21 0 44 5 51 12 9 9 12 5 12
-17 -1 -83 -41 -153 -99 -173 -37 -13 -66 1 -101 50 -25 33 -30 50 -26 73 4
19 3 25 -3 16 -7 -11 -11 -9 -21 9 -9 16 -9 25 -1 33 8 8 11 6 11 -8 0 -17 2
-18 10 -5 5 8 10 24 10 36 0 28 28 82 48 94 9 5 41 10 70 10 39 0 57 -5 72
-20z m-1486 -56 c3 -8 2 -12 -4 -9 -6 3 -10 10 -10 16 0 14 7 11 14 -7z m1466
-28 c0 -11 -19 -15 -25 -6 -3 5 1 10 9 10 9 0 16 -2 16 -4z m1088 -56 c29 -39
28 -52 -3 -44 -41 10 -85 -13 -85 -45 0 -15 5 -32 11 -38 9 -9 7 -16 -6 -29
-17 -17 -16 -19 16 -30 l34 -12 -43 -7 c-24 -4 -40 -11 -35 -15 16 -15 74 2
91 27 15 25 15 26 -11 45 -35 25 -34 34 4 47 43 15 54 14 39 -4 -7 -8 -13 -34
-14 -57 -4 -79 -6 -85 -31 -112 -32 -34 -56 -33 -100 5 -38 34 -61 71 -68 110
-5 29 11 78 21 63 13 -20 48 -25 61 -10 21 25 2 39 -45 33 -42 -4 -44 -3 -44
22 0 34 17 51 50 51 14 1 39 7 55 15 50 22 79 18 103 -15z m-2766 -12 c17 -19
16 -21 -11 -44 -16 -13 -40 -24 -54 -24 -13 0 -35 -8 -48 -19 -44 -33 -52 -31
-69 18 -20 58 -17 66 28 85 49 20 131 12 154 -16z m2378 17 c0 -8 -4 -15 -10
-15 -5 0 -7 7 -4 15 4 8 8 15 10 15 2 0 4 -7 4 -15z m597 -47 c-3 -7 -5 -2 -5
12 0 14 2 19 5 13 2 -7 2 -19 0 -25z m-2921 -43 c-4 -14 -2 -34 4 -45 13 -25
2 -25 -27 -1 -29 24 -30 51 -2 51 11 0 17 5 14 10 -3 6 -1 10 5 10 8 0 10 -9
6 -25z m2911 -22 c-3 -10 -5 -2 -5 17 0 19 2 27 5 18 2 -10 2 -26 0 -35z m474
8 c21 -19 20 -19 -22 -26 -23 -4 -57 -14 -75 -21 -24 -10 -34 -11 -34 -3 0 7
-9 9 -21 6 -17 -5 -18 -3 -8 11 42 55 120 71 160 33z m-2831 -72 c0 -34 -2
-37 -37 -42 -22 -4 -39 -2 -41 3 -2 6 -8 10 -13 10 -6 0 -7 -5 -3 -11 3 -6 0
-16 -7 -21 -10 -6 0 -8 28 -4 l43 6 -3 -32 c-2 -23 -8 -33 -19 -33 -10 0 -23
-6 -30 -13 -17 -17 -29 -15 -21 5 5 14 1 15 -25 10 -28 -6 -32 -4 -32 14 0 14
5 19 14 16 8 -3 17 1 20 9 3 9 -1 14 -13 14 -35 0 -44 24 -30 80 l13 51 19
-26 c18 -25 20 -25 44 -10 13 9 34 26 45 37 l21 21 13 -24 c7 -13 13 -40 14
-60z m1755 71 c-3 -6 4 -10 16 -10 22 0 22 -1 4 -13 -10 -8 -15 -19 -11 -25 3
-6 -2 -13 -11 -15 -15 -4 -15 -6 5 -12 27 -9 27 -9 2 -43 -23 -31 -18 -65 7
-55 11 4 14 2 11 -8 -3 -8 -10 -15 -16 -15 -7 -1 -15 -2 -18 -3 -4 0 1 -12 10
-26 20 -30 20 -35 0 -35 -9 0 -13 -5 -10 -12 3 -7 9 -21 12 -30 6 -17 44 -26
44 -10 0 4 12 15 26 26 l26 19 -7 -24 c-12 -38 -34 -53 -87 -58 -13 -2 -9 -49
5 -54 16 -6 8 -13 -23 -21 -17 -5 -21 -4 -11 2 9 6 10 12 2 16 -7 5 -7 15 0
33 7 20 6 30 -7 44 -8 9 -15 30 -14 46 1 15 1 30 0 33 -1 3 -3 48 -5 100 -2
52 -4 100 -5 105 -1 6 -2 20 -1 33 1 18 7 22 32 22 17 0 28 -4 24 -10z m-2346
-56 c-14 -18 -61 -15 -55 3 3 8 6 24 6 35 0 19 1 19 29 -4 18 -15 25 -27 20
-34z m2821 30 c0 -8 -4 -12 -10 -9 -5 3 -10 10 -10 16 0 5 5 9 10 9 6 0 10 -7
10 -16z m-1945 -24 c3 -5 12 -7 19 -4 14 6 30 -22 20 -37 -9 -15 -53 -10 -72
9 -13 13 -15 21 -7 30 13 14 32 15 40 2z m2084 -7 c0 -11 -3 -13 -6 -5 -2 6
-9 10 -14 6 -5 -3 -9 0 -9 5 0 6 7 11 15 11 8 0 15 -8 14 -17z m-2951 -35 c-3
-7 -18 -14 -34 -16 l-29 -3 25 15 c32 18 43 19 38 4z m1652 -1 c0 -23 -31 -57
-53 -58 -21 0 -21 -1 -2 -8 11 -5 21 -5 23 -1 1 4 13 5 26 3 12 -3 30 2 38 10
13 14 15 8 16 -55 l2 -70 -33 8 c-43 9 -82 35 -67 44 8 5 7 9 -4 13 -12 5 -16
0 -16 -22 0 -27 4 -29 60 -40 38 -8 60 -17 60 -26 0 -11 -8 -11 -47 1 -26 8
-52 13 -58 11 -5 -3 10 -10 35 -16 66 -17 70 -19 70 -31 0 -14 -12 -13 -75 11
-40 15 -55 25 -51 35 4 9 -9 21 -39 35 -52 24 -77 49 -51 49 10 0 26 -5 38
-11 33 -18 32 -2 -1 17 -29 17 -37 42 -13 37 7 -2 9 4 5 14 -5 14 0 15 35 10
45 -5 61 5 42 28 -9 10 -7 14 7 18 34 9 53 7 53 -6z m-1628 -51 c-9 -17 -11
-18 -11 -3 -1 20 -5 21 -32 6 -20 -10 -20 -11 -2 -24 17 -14 17 -14 0 -15 -11
0 -21 9 -24 20 -3 11 -9 17 -14 14 -5 -3 -9 -1 -9 5 0 6 16 13 36 17 19 4 38
13 41 21 5 13 7 13 16 -2 6 -11 5 -25 -1 -39z m757 5 c11 -7 9 -11 -9 -21 -25
-13 -35 -8 -27 15 7 17 16 19 36 6z m-694 -38 c11 -21 34 -58 51 -83 38 -54
55 -113 30 -104 -9 4 -16 11 -15 18 4 31 -3 48 -28 64 -19 11 -28 26 -28 42 0
15 -5 24 -12 23 -7 -2 -13 5 -13 15 0 12 -3 13 -8 5 -5 -8 -8 1 -9 22 -1 45 8
44 32 -2z m2073 2 c28 -44 28 -45 -8 -45 -24 0 -33 -6 -40 -26 -15 -39 -13
-42 35 -39 47 2 59 -11 30 -35 -26 -21 -154 -12 -140 10 3 4 -4 6 -15 3 -15
-4 -20 0 -20 13 0 35 15 47 38 33 16 -10 24 -11 33 -2 16 16 2 33 -27 33 -15
0 -23 4 -19 10 4 6 16 8 28 5 20 -6 21 -5 5 8 -24 19 -22 42 5 55 43 21 71 14
95 -23z m-1248 -10 c0 -8 -4 -15 -10 -15 -5 0 -10 7 -10 15 0 8 5 15 10 15 6
0 10 -7 10 -15z m-68 -31 c12 -8 -13 -22 -42 -23 -13 -1 -13 0 0 9 13 8 12 10
-3 10 -10 0 -16 4 -12 9 6 10 37 7 57 -5z m1840 -3 c10 -1 -13 -51 -24 -51 -4
0 -11 0 -15 0 -5 -1 -11 12 -14 29 -6 31 -5 31 53 22z m-1184 -20 c15 -10 37
-22 50 -25 12 -4 20 -12 16 -17 -6 -10 -104 39 -104 53 0 12 9 10 38 -11z
m681 0 c9 -6 4 -10 -18 -13 -31 -4 -43 6 -18 15 18 8 21 8 36 -2z m-645 -49
c44 -21 97 -44 116 -52 41 -16 56 -27 47 -36 -6 -7 -193 69 -234 94 -21 13
-31 32 -17 32 3 0 43 -17 88 -38z m44 -58 c70 -29 112 -52 112 -61 0 -9 -6
-13 -12 -10 -133 53 -258 111 -258 119 0 15 31 5 158 -48z m1152 47 c0 -5 -7
-14 -15 -21 -16 -14 -18 -10 -9 14 6 17 24 22 24 7z m115 -22 c5 -16 0 -29
-19 -47 -21 -21 -26 -23 -26 -10 0 9 5 20 10 23 6 3 10 17 10 31 0 30 16 32
25 3z m-821 -26 c6 -14 9 -15 15 -4 7 10 19 12 47 5 30 -6 34 -9 17 -12 -13
-2 -23 -8 -23 -13 0 -5 -5 -9 -11 -9 -5 0 -7 5 -4 10 3 6 -1 10 -9 10 -26 0
-26 -17 -1 -28 19 -9 27 -8 37 2 15 14 58 28 58 18 -1 -23 -40 -54 -70 -55
-30 -2 -37 3 -57 38 -12 22 -23 43 -23 48 0 14 18 7 24 -10z m273 -25 c-3 -7
-5 -2 -5 12 0 14 2 19 5 13 2 -7 2 -19 0 -25z m-2130 -55 c-3 -10 -5 -2 -5 17
0 19 2 27 5 18 2 -10 2 -26 0 -35z m2603 13 c0 -3 -4 -8 -10 -11 -5 -3 -10 -1
-10 4 0 6 5 11 10 11 6 0 10 -2 10 -4z m71 -27 c-5 -13 -10 -19 -10 -12 -1 15
10 45 15 40 3 -2 0 -15 -5 -28z m-437 -17 c-17 -34 -32 -48 -42 -37 -3 3 0 10
8 15 8 6 11 10 5 10 -5 0 2 11 15 24 31 30 34 27 14 -12z m271 -10 c-3 -40 -4
-44 -15 -37 -5 3 -6 13 -3 21 3 9 0 20 -7 24 -16 10 -4 31 14 24 7 -3 12 -17
11 -32z m-335 18 c0 -5 -4 -10 -10 -10 -5 0 -10 5 -10 10 0 6 5 10 10 10 6 0
10 -4 10 -10z m-17 -28 c29 -25 19 -34 -13 -10 -16 12 -30 26 -30 30 0 10 16
2 43 -20z m-71 -17 c4 -17 1 -25 -8 -25 -22 0 -16 -14 14 -32 26 -17 26 -17 4
-18 -15 0 -21 -4 -16 -12 5 -8 2 -9 -10 -5 -10 4 -21 7 -25 7 -14 0 -11 53 5
86 18 37 29 37 36 -1z m508 7 c0 -5 -7 -17 -16 -28 -8 -10 -14 -14 -11 -9 2 6
7 18 10 28 7 17 17 23 17 9z m-610 -47 c-7 -8 -17 -15 -22 -15 -11 0 14 29 26
30 5 0 3 -7 -4 -15z m180 -30 c0 -5 -5 -3 -10 5 -5 8 -10 20 -10 25 0 6 5 3
10 -5 5 -8 10 -19 10 -25z m470 17 c0 -5 -7 -17 -15 -28 -14 -18 -14 -17 -4 9
12 27 19 34 19 19z m147 -54 c-3 -7 -5 -2 -5 12 0 14 2 19 5 13 2 -7 2 -19 0
-25z m-2843 -20 c-10 -13 -23 -26 -29 -30 -6 -5 -5 -8 3 -8 19 0 15 -15 -14
-49 -29 -35 -64 -58 -64 -42 0 5 9 13 20 16 11 4 18 11 14 16 -3 5 2 23 10 41
22 43 21 45 -19 43 -19 -2 -32 1 -29 6 3 5 17 9 32 10 15 0 36 4 47 9 39 17
50 12 29 -12z m3067 -101 c-1 -12 -15 -9 -19 4 -3 6 1 10 8 8 6 -3 11 -8 11
-12z m-3444 -984 c-3 -10 -5 -4 -5 12 0 17 2 24 5 18 2 -7 2 -21 0 -30z m840
-81 c21 -53 23 -69 14 -89 -6 -13 -11 -32 -11 -42 0 -12 -10 -21 -26 -25 -34
-9 -36 -6 -25 31 5 19 5 35 0 40 -12 12 -21 138 -13 176 l6 29 15 -28 c8 -16
26 -57 40 -92z m-1007 48 c0 -5 -5 -10 -11 -10 -5 0 -7 5 -4 10 3 6 8 10 11
10 2 0 4 -4 4 -10z m1260 -20 c0 -5 -4 -10 -10 -10 -5 0 -10 5 -10 10 0 6 5
10 10 10 6 0 10 -4 10 -10z m-30 -35 c0 -8 -4 -15 -10 -15 -5 0 -10 7 -10 15
0 8 5 15 10 15 6 0 10 -7 10 -15z m40 -29 c0 -19 -5 -38 -11 -41 -6 -4 -8 -13
-5 -21 3 -8 1 -14 -4 -14 -5 0 -12 -10 -15 -21 l-7 -21 -21 20 c-18 19 -19 22
-3 37 9 9 14 26 12 38 -1 12 -1 16 1 9 8 -23 28 -6 25 21 -2 19 1 27 12 27 12
0 16 -10 16 -34z m290 -46 c0 -5 -8 -10 -17 -10 -15 0 -16 2 -3 10 19 12 20
12 20 0z m-10 -40 c8 -5 11 -10 5 -10 -5 0 -17 5 -25 10 -8 5 -10 10 -5 10 6
0 17 -5 25 -10z m-505 -40 c3 -5 -10 -16 -30 -24 -35 -15 -44 -29 -25 -41 6
-3 10 2 11 12 0 10 3 13 6 6 2 -7 13 -13 23 -13 10 0 21 6 24 13 10 20 -4 -82
-21 -158 -8 -38 -15 -89 -14 -112 1 -33 -2 -43 -14 -43 -12 0 -14 13 -11 78 2
42 0 86 -4 97 -8 18 -9 18 -9 2 -2 -39 -18 -4 -30 63 -15 80 -10 91 43 115 39
17 43 17 51 5z m288 -47 c-3 -7 0 -13 6 -13 6 0 11 -12 11 -27 0 -22 -2 -25
-10 -13 -5 8 -10 10 -10 4 0 -6 -6 -11 -14 -11 -9 0 -19 18 -25 44 -9 34 -17
44 -39 50 l-27 7 25 6 c30 7 90 -27 83 -47z m-148 -4 c-11 -17 6 -31 19 -14 9
13 12 10 12 -22 0 -51 12 -95 24 -88 14 9 12 -9 -2 -24 -11 -11 -9 -12 10 -6
20 6 22 4 18 -19 -3 -14 0 -26 5 -26 6 0 8 -8 5 -17 -16 -56 -18 -76 -7 -69
16 10 14 -13 -4 -48 -19 -36 -19 -36 10 -36 18 0 23 -4 19 -15 -4 -10 0 -15
12 -15 35 0 6 -10 -42 -15 -69 -6 -96 2 -92 29 2 14 11 22 28 24 33 5 51 22
23 22 -17 0 -20 4 -15 23 3 12 10 25 16 29 7 5 6 8 -3 8 -7 0 -11 6 -7 15 3 8
1 15 -3 15 -11 0 -20 -23 -23 -53 -2 -32 -15 165 -17 251 -1 47 3 71 9 67 6
-4 8 -11 5 -16z m375 11 c18 -12 2 -12 -25 0 -13 6 -15 9 -5 9 8 0 22 -4 30
-9z m846 -35 c-3 -10 1 -15 13 -15 10 0 18 -6 18 -12 0 -7 3 -23 7 -35 10 -32
-9 -29 -33 6 -21 30 -26 52 -14 64 11 12 15 8 9 -8z m-1822 -92 c-19 -31 -34
-66 -34 -77 0 -16 -2 -18 -9 -7 -7 11 -11 9 -21 -9 -11 -20 -10 -22 4 -17 15
6 14 2 -3 -22 -12 -16 -21 -36 -21 -45 0 -9 -4 -16 -10 -16 -5 0 -12 -27 -16
-60 -4 -33 -11 -63 -15 -66 -16 -9 -18 154 -2 165 5 3 20 24 33 46 13 22 32
49 42 59 10 11 18 23 18 26 0 4 11 20 25 36 14 16 25 32 25 37 0 4 4 7 9 7 5
0 -6 -26 -25 -57z m973 51 c-3 -3 -12 -4 -19 -1 -8 3 -5 6 6 6 11 1 17 -2 13
-5z m-1554 -78 c4 -10 1 -13 -8 -9 -8 3 -12 9 -9 14 7 12 11 11 17 -5z m2653
-3 c-3 -10 -8 -35 -10 -56 -3 -22 -14 -46 -25 -57 l-21 -18 21 -5 c21 -6 22
-34 1 -30 -14 3 -36 -25 -38 -50 -2 -12 0 -16 2 -9 7 16 24 15 24 -2 0 -8 7
-16 15 -20 11 -4 13 -11 5 -31 -5 -14 -6 -25 -3 -25 4 0 2 -5 -4 -11 -8 -8
-21 -8 -48 1 -30 10 -36 16 -35 38 3 44 1 50 -19 57 -11 3 -24 19 -30 35 l-10
30 30 -15 c16 -9 29 -22 29 -30 0 -7 4 -16 8 -19 5 -3 7 17 4 44 -3 34 1 61
12 84 9 19 16 41 16 50 0 9 5 16 10 16 6 0 10 -13 10 -30 0 -43 14 -37 18 7 2
37 17 63 34 63 5 0 7 -8 4 -17z m-1009 -104 c21 0 33 -3 26 -5 -7 -3 -9 -12
-7 -19 11 -29 -80 -31 -113 -3 -7 6 -13 21 -13 34 0 22 1 23 35 8 19 -7 51
-14 72 -15z m198 -103 c99 -31 111 -50 33 -54 -29 -1 -55 -7 -58 -13 -4 -6
-19 0 -37 17 -28 24 -30 30 -21 56 6 17 13 26 17 21 3 -5 33 -17 66 -27z
m-1770 -6 c-5 -8 -11 -8 -17 -2 -6 6 -7 16 -3 22 5 8 11 8 17 2 6 -6 7 -16 3
-22z m989 -16 c7 -17 -30 -34 -73 -34 -31 0 -56 22 -48 42 7 19 114 11 121 -8z
m2044 -73 c3 -22 1 -23 -40 -18 -115 15 -143 33 -60 40 84 7 97 4 100 -22z
m201 23 c19 -4 31 -13 31 -23 0 -13 -9 -15 -45 -13 -36 3 -45 8 -45 23 0 20
10 23 59 13z m-2839 -51 c-11 -17 -11 -17 -6 0 3 10 6 24 7 30 0 9 2 9 5 0 3
-7 0 -20 -6 -30z m1360 23 c0 -3 -4 -8 -10 -11 -5 -3 -10 -1 -10 4 0 6 5 11
10 11 6 0 10 -2 10 -4z m2237 -23 c16 -16 38 -52 48 -81 16 -45 17 -56 6 -74
-8 -13 -13 -51 -13 -95 0 -79 1 -77 -61 -97 -17 -5 -17 -8 -3 -28 9 -12 16
-31 16 -41 0 -16 -6 -17 -47 -12 -83 11 -93 14 -87 30 4 9 0 15 -10 15 -8 0
-18 11 -22 24 -5 23 -27 39 -70 51 -12 3 -24 13 -26 23 -4 16 3 17 66 15 64
-2 67 -1 36 8 -30 9 -125 8 -180 -3 -8 -2 -16 2 -18 7 -2 6 17 14 42 19 25 5
46 12 46 15 0 4 -23 12 -52 19 -29 6 -56 16 -61 21 -18 18 1 41 35 41 42 0
146 48 154 72 3 10 14 18 24 18 10 0 21 9 25 19 3 12 27 26 63 39 31 10 58 20
58 21 1 0 15 -11 31 -26z m-2263 2 c3 -8 1 -15 -4 -15 -6 0 -10 7 -10 15 0 8
2 15 4 15 2 0 6 -7 10 -15z m12 -40 c-11 -8 -22 -12 -25 -9 -6 6 19 24 34 24
6 -1 1 -7 -9 -15z m-1300 -42 c-2 -21 -2 -32 1 -25 7 17 20 15 20 -3 0 -8 -9
-15 -19 -15 -18 0 -22 10 -18 39 2 13 0 13 -16 0 -9 -7 -19 -13 -21 -11 -1 1
-8 2 -15 2 -7 0 3 -11 22 -25 19 -14 30 -25 26 -25 -12 0 -50 22 -58 34 -9 13
10 36 29 36 7 0 16 7 19 15 4 8 12 15 20 15 10 0 13 -10 10 -37z m1124 7 c0
-11 -4 -20 -10 -20 -5 0 -10 9 -10 20 0 11 5 20 10 20 6 0 10 -9 10 -20z
m-1520 6 c0 -3 -4 -8 -10 -11 -5 -3 -10 -1 -10 4 0 6 5 11 10 11 6 0 10 -2 10
-4z m190 -68 c0 -4 8 -5 18 -2 16 5 16 5 -1 -6 -9 -6 -22 -8 -27 -5 -5 3 -7 0
-4 -8 3 -8 -2 -20 -11 -27 -21 -18 -35 1 -35 47 0 31 1 31 30 20 17 -6 30 -15
30 -19z m518 5 c-42 -2 -114 -2 -160 0 -46 1 -11 3 77 3 88 0 125 -2 83 -3z
m2372 -39 c0 -2 -12 -4 -26 -4 -14 0 -23 4 -20 9 6 8 46 4 46 -5z m-1603 0
c-3 -3 -12 -4 -19 -1 -8 3 -5 6 6 6 11 1 17 -2 13 -5z m361 -23 c3 -9 -2 -11
-18 -6 -14 5 -25 2 -33 -9 -7 -9 -30 -19 -52 -21 l-40 -5 40 14 c39 14 40 14
10 16 -28 2 -26 3 15 15 53 16 72 15 78 -4z m795 4 c20 -8 67 -15 104 -16 57
-1 63 -2 38 -10 -42 -12 -195 15 -195 36 0 9 16 6 53 -10z m-2183 -5 c0 -5 -9
-10 -21 -10 -11 0 -17 5 -14 10 3 6 13 10 21 10 8 0 14 -4 14 -10z m40 0 c0
-5 -4 -10 -10 -10 -5 0 -10 5 -10 10 0 6 5 10 10 10 6 0 10 -4 10 -10z m2430
0 c-14 -4 -36 -8 -50 -8 -22 0 -22 1 5 8 17 4 39 8 50 8 16 0 15 -2 -5 -8z
m260 -18 c27 1 45 -1 41 -5 -13 -13 -95 -10 -136 3 -20 7 -42 9 -50 6 -8 -3
-17 -1 -20 4 -9 15 29 17 73 2 23 -8 64 -12 92 -10z m-2530 14 c0 -3 -4 -8
-10 -11 -5 -3 -10 -1 -10 4 0 6 5 11 10 11 6 0 10 -2 10 -4z m-481 -12 c25 -5
29 -9 20 -20 -6 -8 -24 -14 -40 -14 -22 0 -29 5 -29 20 0 22 3 23 49 14z m254
-31 c-7 -2 -21 -2 -30 0 -10 3 -4 5 12 5 17 0 24 -2 18 -5z m50 0 c-7 -2 -19
-2 -25 0 -7 3 -2 5 12 5 14 0 19 -2 13 -5z m1237 -93 c13 -8 13 -10 -2 -10 -9
0 -20 5 -23 10 -8 13 5 13 25 0z m-245 -60 c-3 -5 -11 -10 -16 -10 -6 0 -7 5
-4 10 3 6 11 10 16 10 6 0 7 -4 4 -10z"/>
<path d="M2281 3904 c0 -11 3 -14 6 -6 3 7 2 16 -1 19 -3 4 -6 -2 -5 -13z"/>
<path d="M1420 3606 c0 -9 30 -14 35 -6 4 6 -3 10 -14 10 -12 0 -21 -2 -21 -4z"/>
<path d="M1475 3340 c-3 -5 -4 -14 0 -19 3 -5 -2 -17 -11 -25 -14 -15 -14 -16
5 -16 17 0 20 6 19 35 -1 37 -3 41 -13 25z"/>
<path d="M1450 3260 c36 -11 50 -11 50 0 0 6 -17 10 -37 9 -34 -1 -35 -2 -13
-9z"/>
<path d="M4351 3734 c0 -11 3 -14 6 -6 3 7 2 16 -1 19 -3 4 -6 -2 -5 -13z"/>
<path d="M1080 2860 c0 -5 5 -10 10 -10 6 0 10 5 10 10 0 6 -4 10 -10 10 -5 0
-10 -4 -10 -10z"/>
<path d="M4685 2840 c-3 -5 1 -10 9 -10 8 0 18 5 21 10 3 6 -1 10 -9 10 -8 0
-18 -4 -21 -10z"/>
<path d="M4686 2811 c-3 -5 0 -11 8 -14 19 -8 57 3 50 14 -7 12 -51 12 -58 0z"/>
<path d="M4665 2760 c-3 -5 1 -10 9 -10 9 0 16 5 16 10 0 6 -4 10 -9 10 -6 0
-13 -4 -16 -10z"/>
<path d="M4600 2738 c0 -4 4 -17 9 -31 8 -20 17 -24 54 -25 41 -2 45 0 51 24
4 15 5 29 1 32 -3 3 -5 1 -5 -4 0 -13 -93 -12 -102 1 -4 6 -8 7 -8 3z m78 -25
c-10 -2 -26 -2 -35 0 -10 3 -2 5 17 5 19 0 27 -2 18 -5z"/>
<path d="M2976 2455 c-3 -9 -6 -22 -5 -28 0 -7 5 -1 10 12 5 13 8 26 5 28 -2
2 -6 -3 -10 -12z"/>
<path d="M1142 2370 c-8 -26 -12 -81 -10 -130 l3 -85 13 85 c7 47 12 105 10
130 l-3 45 -13 -45z"/>
<path d="M3217 2403 c-3 -5 -1 -17 4 -28 7 -17 8 -17 8 8 1 27 -4 34 -12 20z"/>
<path d="M4472 2370 c0 -14 2 -19 5 -12 2 6 2 18 0 25 -3 6 -5 1 -5 -13z"/>
<path d="M3910 2285 c0 -15 18 -40 24 -34 3 3 -1 14 -9 25 -8 10 -14 15 -15 9z"/>
<path d="M3876 2267 c3 -10 9 -15 12 -12 3 3 0 11 -7 18 -10 9 -11 8 -5 -6z"/>
<path d="M3987 2232 c3 -12 9 -25 14 -28 14 -8 11 10 -6 32 -13 18 -14 18 -8
-4z"/>
<path d="M4545 2141 c-3 -5 -1 -12 5 -16 5 -3 10 1 10 9 0 18 -6 21 -15 7z"/>
<path d="M1853 2125 c-10 -8 -13 -19 -9 -33 6 -19 15 -22 57 -22 48 0 49 -1
49 -30 0 -42 -19 -125 -33 -143 -15 -20 -57 -12 -86 14 -22 21 -24 19 -21 -21
2 -31 37 -70 62 -70 62 0 118 150 109 295 -1 27 -3 28 -15 13 -11 -15 -16 -15
-37 -4 -31 16 -55 16 -76 1z m42 -255 c3 -5 1 -10 -4 -10 -6 0 -11 5 -11 10 0
6 2 10 4 10 3 0 8 -4 11 -10z"/>
<path d="M4590 2135 c0 -5 5 -17 10 -25 5 -8 10 -10 10 -5 0 6 -5 17 -10 25
-5 8 -10 11 -10 5z"/>
<path d="M1183 2108 c-12 -6 -25 -18 -28 -26 -5 -14 -4 -14 12 0 10 8 27 20
38 26 25 14 7 14 -22 0z"/>
<path d="M2250 2055 c-17 -21 -8 -50 18 -53 18 -3 22 1 22 26 0 33 -22 48 -40
27z"/>
<path d="M2050 2013 c-23 -9 -50 -35 -45 -43 3 -4 -2 -10 -9 -13 -8 -3 -18
-26 -21 -50 -6 -38 -3 -50 15 -75 26 -35 60 -49 60 -24 0 14 1 14 13 -1 15
-21 54 -12 62 14 4 10 10 19 14 19 11 0 31 47 31 73 0 18 -2 19 -10 7 -7 -11
-10 -8 -10 16 0 34 -16 54 -42 54 -10 0 -21 7 -24 15 -6 16 -10 17 -34 8z m80
-125 c0 -17 -3 -28 -7 -25 -3 4 -17 -2 -29 -14 -21 -19 -27 -20 -53 -10 -31
14 -47 56 -29 79 6 6 7 12 2 12 -4 0 7 11 26 25 l34 25 28 -31 c18 -19 28 -41
28 -61z"/>
<path d="M2345 1973 c-22 -54 -45 -233 -30 -233 9 0 75 71 75 80 0 4 12 15 26
25 l27 17 -7 -51 c-6 -48 -5 -54 21 -81 35 -37 46 -38 32 -3 -5 15 -11 59 -11
98 -1 71 -10 105 -29 105 -5 0 -13 -8 -16 -17 -6 -15 -70 -83 -78 -83 -2 0 -6
7 -9 16 -3 8 -2 12 4 9 6 -4 10 20 10 64 0 73 -3 83 -15 54z"/>
<path d="M2216 1919 c-26 -95 -28 -114 -11 -145 8 -16 15 -24 15 -19 0 6 5 3
10 -5 9 -13 12 -13 21 3 6 9 14 15 20 12 5 -4 9 -2 9 4 0 5 2 16 5 24 5 10 -1
13 -26 9 l-32 -5 7 44 c4 24 8 51 8 59 1 8 5 18 11 21 6 4 4 16 -6 29 -15 22
-16 22 -31 -31z"/>
<path d="M2777 1946 c-43 -40 -101 -176 -78 -184 6 -2 11 -11 11 -20 0 -13 -2
-14 -9 -4 -7 11 -9 11 -14 -2 -3 -8 -2 -18 3 -21 6 -4 7 -17 4 -31 -6 -25 10
-35 19 -11 3 6 6 -3 6 -21 1 -29 3 -32 20 -22 25 13 34 13 26 0 -16 -26 25 -6
57 28 26 27 37 49 41 81 3 24 9 47 14 50 14 9 12 50 -4 107 -10 37 -20 54 -39
63 -32 14 -27 15 -57 -13z m56 -44 c6 -8 9 -35 8 -60 -2 -26 -4 -60 -5 -77 -2
-42 -43 -106 -63 -98 -31 12 -42 61 -27 124 14 60 66 158 73 137 2 -7 8 -19
14 -26z m37 -76 c0 -3 -4 -8 -10 -11 -5 -3 -10 -1 -10 4 0 6 5 11 10 11 6 0
10 -2 10 -4z"/>
<path d="M2920 1781 c-7 -22 -13 -65 -14 -96 0 -45 4 -60 19 -71 24 -18 30
-18 48 0 12 13 16 12 25 -9 8 -17 16 -23 28 -18 14 5 16 3 10 -13 -5 -14 0
-12 19 8 30 33 32 48 5 48 -13 0 -20 7 -20 20 0 11 4 20 8 20 5 0 13 10 19 23
12 26 5 99 -9 95 -12 -4 -49 -105 -50 -133 0 -11 -2 -14 -5 -7 -6 14 -30 16
-35 2 -2 -6 -9 -6 -18 0 -12 7 -12 14 -2 44 7 19 15 43 17 53 2 10 6 27 10 38
6 16 5 17 -4 5 -9 -13 -12 -12 -17 8 -9 32 -19 27 -34 -17z"/>
<path d="M3430 1785 c0 -34 2 -35 36 -35 l36 0 -5 -42 c-2 -24 -13 -83 -24
-131 -11 -52 -16 -90 -10 -94 11 -7 27 15 27 37 0 9 9 42 20 73 11 32 18 61
16 66 -3 4 1 25 9 47 12 37 15 39 59 42 49 3 55 11 30 36 -8 9 -12 16 -7 16 4
0 1 5 -7 10 -11 7 -19 5 -27 -7 -10 -13 -13 -13 -13 -3 0 10 -3 11 -11 3 -6
-6 -23 -8 -44 -3 -19 4 -36 5 -39 2 -4 -3 -6 0 -6 6 0 7 -9 12 -20 12 -16 0
-20 -7 -20 -35z"/>
<path d="M3148 1779 c-19 -11 -24 -39 -9 -54 6 -6 4 -40 -5 -88 -17 -89 -15
-107 7 -84 9 8 21 47 28 86 9 51 18 74 32 81 14 8 21 6 30 -11 10 -19 12 -20
26 -6 14 13 14 20 3 46 -14 34 -21 37 -50 19 -16 -10 -22 -10 -32 4 -10 13
-17 15 -30 7z"/>
<path d="M4341 1686 c-10 -12 -41 -147 -41 -179 0 -29 41 38 54 90 22 84 16
124 -13 89z"/>
<path d="M3641 1668 c-12 -4 -21 -12 -21 -18 0 -5 -6 -10 -14 -10 -38 0 -26
-159 13 -176 30 -14 101 -31 106 -26 13 14 4 42 -14 42 -11 0 -23 5 -26 10 -4
6 -9 9 -13 7 -4 -2 -18 7 -31 20 -17 16 -20 23 -9 23 28 0 96 40 101 60 13 50
-38 88 -92 68z m74 -27 c8 -13 -22 -40 -53 -47 -15 -4 -33 -11 -39 -17 -26
-20 -13 15 16 44 29 28 64 38 76 20z"/>
<path d="M4446 1671 c-10 -16 -36 -136 -36 -166 l0 -30 19 25 c22 28 53 143
45 165 -7 17 -20 20 -28 6z"/>
<path d="M3850 1643 c-24 -9 -70 -55 -64 -65 3 -4 1 -8 -5 -8 -26 0 -24 -133
3 -143 25 -10 64 5 71 26 6 21 7 21 18 -4 7 -14 18 -34 26 -43 21 -25 32 0 14
34 -7 16 -14 59 -14 96 -1 62 -14 115 -28 113 -3 0 -13 -3 -21 -6z m22 -73
c-6 -40 -36 -85 -60 -88 -36 -5 -27 45 17 101 21 25 47 17 43 -13z"/>
<path d="M4065 1597 c-11 -7 -23 -16 -27 -22 -4 -6 -13 -2 -22 10 -13 17 -17
18 -25 5 -6 -8 -13 -40 -16 -70 -3 -30 -8 -72 -11 -92 -5 -30 -3 -38 10 -38 9
0 16 8 16 19 0 10 6 21 13 24 7 3 19 23 25 44 7 22 21 48 33 59 l22 19 -5 -92
c-3 -51 -4 -93 -3 -93 17 0 35 16 35 31 0 10 6 19 13 19 8 0 20 12 27 26 8 14
23 30 33 35 17 10 18 7 12 -59 -5 -44 -4 -72 3 -76 11 -7 21 36 37 154 0 3 4
10 8 17 4 7 2 21 -5 33 -13 21 -28 27 -28 11 0 -5 -10 -13 -22 -16 -13 -4 -36
-19 -51 -34 l-28 -26 5 47 c4 35 2 51 -10 62 -8 9 -16 16 -17 15 -1 0 -11 -6
-22 -12z"/>
<path d="M4282 1397 c-6 -7 -14 -25 -18 -41 l-7 -28 27 17 c25 17 35 48 17 59
-5 3 -13 0 -19 -7z"/>
<path d="M4382 1370 c-6 -11 -12 -29 -12 -40 0 -18 3 -19 20 -8 26 17 34 39
18 55 -11 10 -16 9 -26 -7z"/>
<path d="M2820 3130 c0 -5 17 -10 38 -9 30 0 33 2 17 9 -28 12 -55 12 -55 0z"/>
<path d="M2850 3101 c0 -5 7 -11 15 -15 9 -3 15 0 15 9 0 8 -7 15 -15 15 -8 0
-15 -4 -15 -9z"/>
<path d="M2841 3026 c-9 -11 -9 -19 1 -35 7 -12 16 -21 21 -21 4 0 5 4 2 10
-4 6 10 9 35 8 30 -1 39 -5 36 -15 -8 -19 8 -16 27 5 23 25 21 41 -5 47 -32 6
-77 2 -71 -8 3 -4 19 -7 35 -5 17 2 33 -1 35 -7 2 -6 -20 -9 -57 -7 -55 4 -59
5 -50 23 13 22 7 25 -9 5z"/>
<path d="M2898 2943 c7 -3 16 -2 19 1 4 3 -2 6 -13 5 -11 0 -14 -3 -6 -6z"/>
<path d="M3910 2884 c-11 -12 -11 -18 1 -29 12 -12 14 -10 14 15 0 35 1 34
-15 14z"/>
<path d="M3394 2641 c9 -14 56 -20 56 -7 0 7 -14 13 -31 14 -17 1 -28 -2 -25
-7z"/>
<path d="M2080 800 c0 -5 5 -10 11 -10 5 0 7 5 4 10 -3 6 -8 10 -11 10 -2 0
-4 -4 -4 -10z"/>
<path d="M2092 735 c0 -16 2 -22 5 -12 2 9 2 23 0 30 -3 6 -5 -1 -5 -18z"/>
<path d="M2120 651 c0 -11 -6 -22 -12 -24 -8 -3 -6 -6 5 -6 12 -1 17 7 17 24
0 14 -2 25 -5 25 -3 0 -5 -9 -5 -19z"/>
<path d="M3450 661 c0 -10 19 -25 25 -20 1 2 -3 10 -11 17 -8 7 -14 8 -14 3z"/>
<path d="M4885 225 c-29 -13 -29 -13 -5 -14 36 -1 71 10 64 20 -7 12 -23 11
-59 -6z"/>
<path d="M1128 1137 c-3 -19 -2 -25 4 -19 6 6 8 18 6 28 -3 14 -5 12 -10 -9z"/>
<path d="M880 1030 c0 -5 9 -14 20 -20 17 -9 20 -8 20 10 0 13 -7 20 -20 20
-11 0 -20 -4 -20 -10z"/>
<path d="M945 970 c-3 -5 -1 -10 4 -10 6 0 11 5 11 10 0 6 -2 10 -4 10 -3 0
-8 -4 -11 -10z"/>
<path d="M942 804 c-7 -8 -12 -20 -9 -27 2 -7 9 -2 16 11 15 28 11 36 -7 16z"/>
<path d="M976 455 c-3 -8 -1 -15 4 -15 13 0 22 18 11 24 -5 3 -11 -1 -15 -9z"/>
<path d="M1920 273 c-38 -7 -45 -20 -13 -26 79 -16 153 -18 194 -6 l44 13 -75
7 c-41 4 -86 9 -100 12 -14 3 -36 3 -50 0z"/>
<path d="M1981 133 c-6 -16 -14 -45 -16 -63 -3 -18 -12 -41 -21 -51 -17 -18
-15 -19 54 -19 40 0 72 3 72 8 0 4 -7 17 -15 28 -8 12 -11 24 -8 28 3 3 -1 6
-9 6 -10 0 -14 7 -11 23 3 13 -3 33 -14 46 l-19 24 -13 -30z"/>
</g>
</svg>
